M48
METRIC,LZ,000.000
;FILE_FORMAT=3:3
;TYPE=PLATED
;Layer: PTH_Through_Via
;EasyEDA v6.5.23, 2023-08-22 14:51:30
;a67cddfb3fce44daa9051d46cbbcc19f,10
;Gerber Generator version 0.2
;Holesize 1 = 0.305 mm
T01C0.305
;Holesize 2 = 0.306 mm
T02C0.306
%
G05
G90
T01
X052500Y015250
T02
X001073Y024328
X001073Y014328
X001073Y009328
X001073Y004328
X006073Y024328
X006073Y019328
X006073Y014328
X006073Y009328
X006073Y004328
X011073Y024328
X011073Y019328
X011073Y014328
X011073Y009328
X011073Y004328
X016073Y024328
X016073Y019328
X021073Y024328
X021073Y019328
X021073Y004328
X026073Y024328
X026073Y019328
X026073Y004328
X031073Y024328
X031073Y019328
X031073Y004328
X036073Y024328
X036073Y019328
X036073Y014328
X036073Y009328
X036073Y004328
X041073Y024328
X041073Y014328
X041073Y009328
X041073Y004328
X046073Y024328
X046073Y019328
X046073Y009328
X046073Y004328
X051073Y024328
X051073Y009328
X051073Y004328
X056073Y024328
X056073Y019328
X061073Y024328
X061073Y019328
X066073Y024328
X066073Y014328
X066073Y009328
M30
