G04 Layer: BottomPasteMaskLayer*
G04 EasyEDA v6.5.23, 2023-08-22 14:51:30*
G04 a67cddfb3fce44daa9051d46cbbcc19f,10*
G04 Gerber Generator version 0.2*
G04 Scale: 100 percent, Rotated: No, Reflected: No *
G04 Dimensions in millimeters *
G04 leading zeros omitted , absolute positions ,4 integer and 5 decimal *
%FSLAX45Y45*%
%MOMM*%

%AMMACRO1*4,1,4,-0.2249,1.15,0.2249,1.15,0.2249,-1.15,-0.2249,-1.15,-0.2249,1.15,0*%
%AMMACRO2*4,1,4,-0.225,1.15,0.225,1.15,0.225,-1.15,-0.225,-1.15,-0.225,1.15,0*%
%ADD10MACRO1*%
%ADD11MACRO2*%

%LPD*%
D10*
G01*
X245097Y140045D03*
D11*
G01*
X305104Y140045D03*
G01*
X365099Y140045D03*
G01*
X425094Y140045D03*
D10*
G01*
X485101Y140045D03*
D11*
G01*
X545109Y140045D03*
G01*
X605104Y140045D03*
G01*
X665099Y140045D03*
G01*
X725093Y140045D03*
D10*
G01*
X785101Y140045D03*
D11*
G01*
X845108Y140045D03*
G01*
X905103Y140045D03*
G01*
X965098Y140045D03*
D10*
G01*
X1025105Y140045D03*
G01*
X1085100Y140045D03*
D11*
G01*
X1145108Y140045D03*
G01*
X1205103Y140045D03*
G01*
X1265097Y140045D03*
D10*
G01*
X1325105Y140045D03*
G01*
X1385100Y140045D03*
D11*
G01*
X1805101Y140045D03*
G01*
X1865096Y140045D03*
D10*
G01*
X1925104Y140045D03*
G01*
X1985098Y140045D03*
D11*
G01*
X2045106Y140045D03*
G01*
X2105101Y140045D03*
G01*
X2165096Y140045D03*
D10*
G01*
X2225103Y140045D03*
G01*
X2285098Y140045D03*
D11*
G01*
X2345105Y140045D03*
G01*
X2405100Y140045D03*
G01*
X2465095Y140045D03*
D10*
G01*
X2525102Y140045D03*
G01*
X2585097Y140045D03*
D11*
G01*
X2645105Y140045D03*
G01*
X2705100Y140045D03*
G01*
X2765094Y140045D03*
D10*
G01*
X2825102Y140045D03*
D11*
G01*
X2885109Y140045D03*
G01*
X2945104Y140045D03*
G01*
X3005099Y140045D03*
G01*
X3065094Y140045D03*
D10*
G01*
X3125101Y140045D03*
D11*
G01*
X3185109Y140045D03*
G01*
X3245103Y140045D03*
G01*
X3305098Y140045D03*
G01*
X3365093Y140045D03*
D10*
G01*
X3425101Y140045D03*
D11*
G01*
X3485108Y140045D03*
G01*
X3545103Y140045D03*
G01*
X3605098Y140045D03*
D10*
G01*
X3665105Y140045D03*
G01*
X3725100Y140045D03*
D11*
G01*
X3785107Y140045D03*
G01*
X3845102Y140045D03*
G01*
X3905097Y140045D03*
D10*
G01*
X3965105Y140045D03*
G01*
X4025099Y140045D03*
D11*
G01*
X4085107Y140045D03*
G01*
X4145102Y140045D03*
G01*
X4205096Y140045D03*
D10*
G01*
X4265104Y140045D03*
G01*
X4325099Y140045D03*
D11*
G01*
X4385106Y140045D03*
G01*
X4445101Y140045D03*
G01*
X4505096Y140045D03*
D10*
G01*
X4565103Y140045D03*
G01*
X4625098Y140045D03*
D11*
G01*
X4685106Y140045D03*
G01*
X4745101Y140045D03*
G01*
X4805095Y140045D03*
D10*
G01*
X4865103Y140045D03*
G01*
X4925098Y140045D03*
D11*
G01*
X4985105Y140045D03*
G01*
X5045100Y140045D03*
G01*
X5105095Y140045D03*
D10*
G01*
X5165102Y140045D03*
G01*
X5225097Y140045D03*
D11*
G01*
X5285105Y140045D03*
G01*
X5345099Y140045D03*
G01*
X5405094Y140045D03*
D10*
G01*
X5465102Y140045D03*
D11*
G01*
X5525109Y140045D03*
G01*
X5585104Y140045D03*
G01*
X5645099Y140045D03*
G01*
X5705094Y140045D03*
D10*
G01*
X5765101Y140045D03*
D11*
G01*
X5825108Y140045D03*
G01*
X5885103Y140045D03*
G01*
X5945098Y140045D03*
G01*
X6005093Y140045D03*
D10*
G01*
X6065100Y140045D03*
D11*
G01*
X6125108Y140045D03*
G01*
X6185103Y140045D03*
G01*
X6245098Y140045D03*
D10*
G01*
X6305105Y140045D03*
G01*
X6365100Y140045D03*
D11*
G01*
X6425107Y140045D03*
G01*
X6485102Y140045D03*
G01*
X6545097Y140045D03*
M02*
