G04 Layer: TopSilkscreenLayer*
G04 EasyEDA v6.5.23, 2023-08-22 14:51:30*
G04 a67cddfb3fce44daa9051d46cbbcc19f,10*
G04 Gerber Generator version 0.2*
G04 Scale: 100 percent, Rotated: No, Reflected: No *
G04 Dimensions in millimeters *
G04 leading zeros omitted , absolute positions ,4 integer and 5 decimal *
%FSLAX45Y45*%
%MOMM*%

%ADD10C,0.2032*%
%ADD11C,0.1524*%
%ADD12C,0.2540*%

%LPD*%
G36*
X5702808Y2452827D02*
G01*
X5696407Y2452573D01*
X5690209Y2451811D01*
X5684113Y2450541D01*
X5678220Y2448864D01*
X5672531Y2446680D01*
X5667044Y2444140D01*
X5661812Y2441143D01*
X5656834Y2437790D01*
X5652160Y2434082D01*
X5647791Y2430018D01*
X5643727Y2425649D01*
X5640019Y2420975D01*
X5636666Y2415997D01*
X5633669Y2410764D01*
X5631129Y2405278D01*
X5628944Y2399588D01*
X5627268Y2393696D01*
X5625998Y2387600D01*
X5625236Y2381351D01*
X5624982Y2375001D01*
X5624982Y2281478D01*
X5650331Y2281478D01*
X5650331Y2319578D01*
X5650534Y2326030D01*
X5651195Y2332075D01*
X5652211Y2337714D01*
X5653684Y2343048D01*
X5655614Y2347976D01*
X5657900Y2352497D01*
X5660644Y2356662D01*
X5663793Y2360472D01*
X5667298Y2363876D01*
X5671159Y2366822D01*
X5675376Y2369312D01*
X5679998Y2371344D01*
X5684977Y2372918D01*
X5690311Y2374087D01*
X5696051Y2374747D01*
X5702147Y2374950D01*
X5709920Y2374595D01*
X5717184Y2373376D01*
X5723991Y2371394D01*
X5730341Y2368600D01*
X5736082Y2365095D01*
X5741060Y2360930D01*
X5745327Y2356104D01*
X5748883Y2350566D01*
X5751677Y2344521D01*
X5753658Y2338070D01*
X5754827Y2331212D01*
X5755233Y2323896D01*
X5755233Y2281478D01*
X5624982Y2281478D01*
X5624982Y2261158D01*
X5755233Y2261158D01*
X5755233Y2235250D01*
X5674461Y2189530D01*
X5685078Y2190699D01*
X5693511Y2191054D01*
X5755233Y2191054D01*
X5755233Y2171496D01*
X5650331Y2171496D01*
X5650331Y2196642D01*
X5731865Y2242870D01*
X5720994Y2241956D01*
X5711291Y2241600D01*
X5650331Y2241600D01*
X5650331Y2261158D01*
X5624982Y2261158D01*
X5624982Y2102662D01*
X5648807Y2102662D01*
X5649264Y2111451D01*
X5650534Y2119426D01*
X5652668Y2126538D01*
X5655665Y2132838D01*
X5659526Y2138324D01*
X5664250Y2142947D01*
X5669838Y2146706D01*
X5676239Y2149652D01*
X5682335Y2129332D01*
X5678525Y2127453D01*
X5675223Y2125167D01*
X5672429Y2122373D01*
X5670143Y2119172D01*
X5668365Y2115515D01*
X5667095Y2111502D01*
X5666333Y2107234D01*
X5666079Y2102662D01*
X5666689Y2095398D01*
X5668416Y2089048D01*
X5671362Y2083562D01*
X5675477Y2079040D01*
X5680710Y2075637D01*
X5686907Y2073148D01*
X5694172Y2071674D01*
X5702401Y2071166D01*
X5710783Y2071674D01*
X5718149Y2073198D01*
X5724499Y2075738D01*
X5729833Y2079294D01*
X5734050Y2083917D01*
X5737098Y2089353D01*
X5738876Y2095601D01*
X5739485Y2102662D01*
X5739333Y2106930D01*
X5738876Y2111146D01*
X5738063Y2115210D01*
X5735675Y2123033D01*
X5734202Y2126386D01*
X5732526Y2129231D01*
X5730595Y2131618D01*
X5716117Y2131618D01*
X5716117Y2106218D01*
X5699861Y2106218D01*
X5699861Y2151684D01*
X5738469Y2151684D01*
X5742533Y2147316D01*
X5746140Y2142236D01*
X5749290Y2136495D01*
X5751931Y2130094D01*
X5754065Y2123389D01*
X5755538Y2116531D01*
X5756452Y2109419D01*
X5756757Y2102154D01*
X5756554Y2095957D01*
X5755894Y2090115D01*
X5754776Y2084628D01*
X5753201Y2079498D01*
X5751220Y2074773D01*
X5748782Y2070404D01*
X5745886Y2066442D01*
X5742533Y2062784D01*
X5738825Y2059584D01*
X5734710Y2056790D01*
X5730240Y2054453D01*
X5725414Y2052523D01*
X5720181Y2050999D01*
X5714644Y2049932D01*
X5708700Y2049322D01*
X5702401Y2049068D01*
X5696102Y2049322D01*
X5690209Y2049932D01*
X5684672Y2050999D01*
X5679490Y2052523D01*
X5674664Y2054453D01*
X5670245Y2056790D01*
X5666232Y2059584D01*
X5662523Y2062784D01*
X5659323Y2066493D01*
X5656529Y2070557D01*
X5654192Y2074976D01*
X5652262Y2079752D01*
X5650738Y2084933D01*
X5649671Y2090470D01*
X5649010Y2096414D01*
X5648807Y2102662D01*
X5624982Y2102662D01*
X5624982Y2048967D01*
X5625236Y2042617D01*
X5625998Y2036368D01*
X5627268Y2030272D01*
X5628944Y2024380D01*
X5631129Y2018690D01*
X5633669Y2013204D01*
X5636666Y2007971D01*
X5640019Y2003043D01*
X5643727Y1998319D01*
X5647791Y1993950D01*
X5652160Y1989886D01*
X5656834Y1986178D01*
X5661812Y1982825D01*
X5667044Y1979828D01*
X5672531Y1977288D01*
X5678220Y1975154D01*
X5684113Y1973427D01*
X5690209Y1972157D01*
X5696407Y1971395D01*
X5702808Y1971141D01*
X5709208Y1971395D01*
X5715457Y1972157D01*
X5721502Y1973427D01*
X5727395Y1975154D01*
X5733084Y1977288D01*
X5738571Y1979828D01*
X5743803Y1982825D01*
X5748782Y1986178D01*
X5753455Y1989886D01*
X5757824Y1993950D01*
X5761888Y1998319D01*
X5765647Y2003043D01*
X5769000Y2007971D01*
X5771946Y2013204D01*
X5774537Y2018690D01*
X5776671Y2024380D01*
X5778398Y2030272D01*
X5779617Y2036368D01*
X5780379Y2042617D01*
X5780633Y2048967D01*
X5780633Y2375001D01*
X5780379Y2381351D01*
X5779617Y2387600D01*
X5778398Y2393696D01*
X5776671Y2399588D01*
X5774537Y2405278D01*
X5771946Y2410764D01*
X5769000Y2415997D01*
X5765647Y2420975D01*
X5761888Y2425649D01*
X5757824Y2430018D01*
X5753455Y2434082D01*
X5748782Y2437790D01*
X5743803Y2441143D01*
X5738571Y2444140D01*
X5733084Y2446680D01*
X5727395Y2448864D01*
X5721502Y2450541D01*
X5715457Y2451811D01*
X5709208Y2452573D01*
G37*
G36*
X5702147Y2352852D02*
G01*
X5694172Y2352344D01*
X5687161Y2350719D01*
X5681218Y2348026D01*
X5676239Y2344216D01*
X5672378Y2339340D01*
X5669584Y2333498D01*
X5667908Y2326741D01*
X5667349Y2319070D01*
X5667349Y2303576D01*
X5738215Y2303576D01*
X5738215Y2322118D01*
X5737606Y2328773D01*
X5735828Y2334717D01*
X5732780Y2339949D01*
X5728563Y2344470D01*
X5723178Y2348179D01*
X5717032Y2350770D01*
X5709970Y2352344D01*
G37*
G36*
X5952794Y2452827D02*
G01*
X5946444Y2452573D01*
X5940196Y2451811D01*
X5934100Y2450541D01*
X5928207Y2448864D01*
X5922518Y2446680D01*
X5917031Y2444140D01*
X5911799Y2441143D01*
X5906871Y2437790D01*
X5902147Y2434082D01*
X5897778Y2430018D01*
X5893714Y2425649D01*
X5890006Y2420975D01*
X5886653Y2415997D01*
X5883656Y2410764D01*
X5881116Y2405278D01*
X5878982Y2399588D01*
X5877255Y2393696D01*
X5876036Y2387600D01*
X5875274Y2381351D01*
X5874969Y2375001D01*
X5874969Y2281478D01*
X5900318Y2281478D01*
X5900318Y2319578D01*
X5900572Y2326030D01*
X5901182Y2332075D01*
X5902248Y2337714D01*
X5903722Y2343048D01*
X5905601Y2347976D01*
X5907887Y2352497D01*
X5910630Y2356662D01*
X5913780Y2360472D01*
X5917285Y2363876D01*
X5921146Y2366822D01*
X5925362Y2369312D01*
X5929985Y2371344D01*
X5934964Y2372918D01*
X5940348Y2374087D01*
X5946038Y2374747D01*
X5952134Y2374950D01*
X5959906Y2374595D01*
X5967222Y2373376D01*
X5974029Y2371394D01*
X5980328Y2368600D01*
X5986068Y2365095D01*
X5991098Y2360930D01*
X5995365Y2356104D01*
X5998870Y2350566D01*
X6001664Y2344521D01*
X6003645Y2338070D01*
X6004864Y2331212D01*
X6005220Y2323896D01*
X6005220Y2281478D01*
X5874969Y2281478D01*
X5874969Y2261158D01*
X6005220Y2261158D01*
X6005220Y2235250D01*
X5924448Y2189530D01*
X5935065Y2190699D01*
X5943498Y2191054D01*
X6005220Y2191054D01*
X6005220Y2171496D01*
X5900318Y2171496D01*
X5900318Y2196642D01*
X5981852Y2242870D01*
X5971032Y2241956D01*
X5961278Y2241600D01*
X5900318Y2241600D01*
X5900318Y2261158D01*
X5874969Y2261158D01*
X5874969Y2102662D01*
X5898794Y2102662D01*
X5899251Y2111451D01*
X5900521Y2119426D01*
X5902655Y2126538D01*
X5905652Y2132838D01*
X5909513Y2138324D01*
X5914237Y2142947D01*
X5919825Y2146706D01*
X5926226Y2149652D01*
X5932322Y2129332D01*
X5928512Y2127453D01*
X5925210Y2125167D01*
X5922416Y2122373D01*
X5920130Y2119172D01*
X5918352Y2115515D01*
X5917082Y2111502D01*
X5916320Y2107234D01*
X5916066Y2102662D01*
X5916676Y2095398D01*
X5918454Y2089048D01*
X5921349Y2083562D01*
X5925464Y2079040D01*
X5930696Y2075637D01*
X5936894Y2073148D01*
X5944158Y2071674D01*
X5952388Y2071166D01*
X5960770Y2071674D01*
X5968136Y2073198D01*
X5974486Y2075738D01*
X5979820Y2079294D01*
X5984087Y2083917D01*
X5987084Y2089353D01*
X5988913Y2095601D01*
X5989472Y2102662D01*
X5989320Y2106930D01*
X5988862Y2111146D01*
X5988050Y2115210D01*
X5985713Y2123033D01*
X5984240Y2126386D01*
X5982512Y2129231D01*
X5980582Y2131618D01*
X5966104Y2131618D01*
X5966104Y2106218D01*
X5949848Y2106218D01*
X5949848Y2151684D01*
X5988456Y2151684D01*
X5992571Y2147316D01*
X5996178Y2142236D01*
X5999276Y2136495D01*
X6001918Y2130094D01*
X6004052Y2123389D01*
X6005576Y2116531D01*
X6006439Y2109419D01*
X6006744Y2102154D01*
X6006541Y2095957D01*
X6005880Y2090115D01*
X6004763Y2084628D01*
X6003188Y2079498D01*
X6001207Y2074773D01*
X5998768Y2070404D01*
X5995873Y2066442D01*
X5992520Y2062784D01*
X5988812Y2059584D01*
X5984697Y2056790D01*
X5980226Y2054453D01*
X5975400Y2052523D01*
X5970219Y2050999D01*
X5964631Y2049932D01*
X5958687Y2049322D01*
X5952388Y2049068D01*
X5946140Y2049322D01*
X5940196Y2049932D01*
X5934659Y2050999D01*
X5929477Y2052523D01*
X5924702Y2054453D01*
X5920282Y2056790D01*
X5916218Y2059584D01*
X5912510Y2062784D01*
X5909310Y2066493D01*
X5906516Y2070557D01*
X5904179Y2074976D01*
X5902248Y2079752D01*
X5900724Y2084933D01*
X5899658Y2090470D01*
X5899048Y2096414D01*
X5898794Y2102662D01*
X5874969Y2102662D01*
X5874969Y2048967D01*
X5875274Y2042617D01*
X5876036Y2036368D01*
X5877255Y2030272D01*
X5878982Y2024380D01*
X5881116Y2018690D01*
X5883656Y2013204D01*
X5886653Y2007971D01*
X5890006Y2003043D01*
X5893714Y1998319D01*
X5897778Y1993950D01*
X5902147Y1989886D01*
X5906871Y1986178D01*
X5911799Y1982825D01*
X5917031Y1979828D01*
X5922518Y1977288D01*
X5928207Y1975154D01*
X5934100Y1973427D01*
X5940196Y1972157D01*
X5946444Y1971395D01*
X5952794Y1971141D01*
X5959195Y1971395D01*
X5965444Y1972157D01*
X5971540Y1973427D01*
X5977432Y1975154D01*
X5983122Y1977288D01*
X5988558Y1979828D01*
X5993790Y1982825D01*
X5998768Y1986178D01*
X6003442Y1989886D01*
X6007862Y1993950D01*
X6011926Y1998319D01*
X6015634Y2003043D01*
X6018987Y2007971D01*
X6021933Y2013204D01*
X6024524Y2018690D01*
X6026658Y2024380D01*
X6028385Y2030272D01*
X6029604Y2036368D01*
X6030366Y2042617D01*
X6030620Y2048967D01*
X6030620Y2375001D01*
X6030366Y2381351D01*
X6029604Y2387600D01*
X6028385Y2393696D01*
X6026658Y2399588D01*
X6024524Y2405278D01*
X6021933Y2410764D01*
X6018987Y2415997D01*
X6015634Y2420975D01*
X6011926Y2425649D01*
X6007862Y2430018D01*
X6003442Y2434082D01*
X5998768Y2437790D01*
X5993790Y2441143D01*
X5988558Y2444140D01*
X5983122Y2446680D01*
X5977432Y2448864D01*
X5971540Y2450541D01*
X5965444Y2451811D01*
X5959195Y2452573D01*
G37*
G36*
X5952134Y2352852D02*
G01*
X5944158Y2352344D01*
X5937148Y2350719D01*
X5931204Y2348026D01*
X5926226Y2344216D01*
X5922365Y2339340D01*
X5919571Y2333498D01*
X5917895Y2326741D01*
X5917336Y2319070D01*
X5917336Y2303576D01*
X5988202Y2303576D01*
X5988202Y2322118D01*
X5987643Y2328773D01*
X5985814Y2334717D01*
X5982817Y2339949D01*
X5978550Y2344470D01*
X5973216Y2348179D01*
X5967018Y2350770D01*
X5960008Y2352344D01*
G37*
G36*
X6202832Y2452827D02*
G01*
X6196431Y2452573D01*
X6190183Y2451811D01*
X6184138Y2450541D01*
X6178245Y2448864D01*
X6172504Y2446680D01*
X6167069Y2444140D01*
X6161836Y2441143D01*
X6156858Y2437790D01*
X6152184Y2434082D01*
X6147816Y2430018D01*
X6143752Y2425649D01*
X6139992Y2420975D01*
X6136640Y2415997D01*
X6133693Y2410764D01*
X6131102Y2405278D01*
X6128969Y2399588D01*
X6127242Y2393696D01*
X6126022Y2387600D01*
X6125260Y2381351D01*
X6125006Y2375001D01*
X6125006Y2281478D01*
X6150356Y2281478D01*
X6150356Y2319578D01*
X6150559Y2326030D01*
X6151168Y2332075D01*
X6152235Y2337714D01*
X6153708Y2343048D01*
X6155588Y2347976D01*
X6157925Y2352497D01*
X6160668Y2356662D01*
X6163818Y2360472D01*
X6167272Y2363876D01*
X6171133Y2366822D01*
X6175400Y2369312D01*
X6180023Y2371344D01*
X6185001Y2372918D01*
X6190335Y2374087D01*
X6196076Y2374747D01*
X6202172Y2374950D01*
X6209944Y2374595D01*
X6217208Y2373376D01*
X6224016Y2371394D01*
X6230366Y2368600D01*
X6236106Y2365095D01*
X6241084Y2360930D01*
X6245352Y2356104D01*
X6248908Y2350566D01*
X6251651Y2344521D01*
X6253683Y2338070D01*
X6254851Y2331212D01*
X6255258Y2323896D01*
X6255258Y2281478D01*
X6125006Y2281478D01*
X6125006Y2261158D01*
X6255258Y2261158D01*
X6255258Y2235250D01*
X6174486Y2189530D01*
X6185103Y2190699D01*
X6193536Y2191054D01*
X6255258Y2191054D01*
X6255258Y2171496D01*
X6150356Y2171496D01*
X6150356Y2196642D01*
X6231890Y2242870D01*
X6221018Y2241956D01*
X6211316Y2241600D01*
X6150356Y2241600D01*
X6150356Y2261158D01*
X6125006Y2261158D01*
X6125006Y2102662D01*
X6148832Y2102662D01*
X6149238Y2111451D01*
X6150559Y2119426D01*
X6152692Y2126538D01*
X6155690Y2132838D01*
X6159550Y2138324D01*
X6164224Y2142947D01*
X6169812Y2146706D01*
X6176264Y2149652D01*
X6182360Y2129332D01*
X6178550Y2127453D01*
X6175248Y2125167D01*
X6172454Y2122373D01*
X6170168Y2119172D01*
X6168390Y2115515D01*
X6167120Y2111502D01*
X6166358Y2107234D01*
X6166104Y2102662D01*
X6166662Y2095398D01*
X6168440Y2089048D01*
X6171387Y2083562D01*
X6175502Y2079040D01*
X6180683Y2075637D01*
X6186932Y2073148D01*
X6194145Y2071674D01*
X6202426Y2071166D01*
X6210808Y2071674D01*
X6218174Y2073198D01*
X6224524Y2075738D01*
X6229858Y2079294D01*
X6234074Y2083917D01*
X6237071Y2089353D01*
X6238900Y2095601D01*
X6239510Y2102662D01*
X6239357Y2106930D01*
X6238849Y2111146D01*
X6238087Y2115210D01*
X6235700Y2123033D01*
X6234226Y2126386D01*
X6232550Y2129231D01*
X6230620Y2131618D01*
X6216142Y2131618D01*
X6216142Y2106218D01*
X6199886Y2106218D01*
X6199886Y2151684D01*
X6238494Y2151684D01*
X6242558Y2147316D01*
X6246164Y2142236D01*
X6249314Y2136495D01*
X6251956Y2130094D01*
X6254038Y2123389D01*
X6255562Y2116531D01*
X6256477Y2109419D01*
X6256782Y2102154D01*
X6256528Y2095957D01*
X6255867Y2090115D01*
X6254750Y2084628D01*
X6253226Y2079498D01*
X6251194Y2074773D01*
X6248755Y2070404D01*
X6245860Y2066442D01*
X6242558Y2062784D01*
X6238798Y2059584D01*
X6234684Y2056790D01*
X6230213Y2054453D01*
X6225387Y2052523D01*
X6220206Y2050999D01*
X6214618Y2049932D01*
X6208725Y2049322D01*
X6202426Y2049068D01*
X6196126Y2049322D01*
X6190183Y2049932D01*
X6184646Y2050999D01*
X6179515Y2052523D01*
X6174689Y2054453D01*
X6170269Y2056790D01*
X6166205Y2059584D01*
X6162548Y2062784D01*
X6159296Y2066493D01*
X6156553Y2070557D01*
X6154166Y2074976D01*
X6152235Y2079752D01*
X6150762Y2084933D01*
X6149695Y2090470D01*
X6149035Y2096414D01*
X6148832Y2102662D01*
X6125006Y2102662D01*
X6125006Y2048967D01*
X6125260Y2042617D01*
X6126022Y2036368D01*
X6127242Y2030272D01*
X6128969Y2024380D01*
X6131102Y2018690D01*
X6133693Y2013204D01*
X6136640Y2007971D01*
X6139992Y2003043D01*
X6143752Y1998319D01*
X6147816Y1993950D01*
X6152184Y1989886D01*
X6156858Y1986178D01*
X6161836Y1982825D01*
X6167069Y1979828D01*
X6172504Y1977288D01*
X6178245Y1975154D01*
X6184138Y1973427D01*
X6190183Y1972157D01*
X6196431Y1971395D01*
X6202832Y1971141D01*
X6209182Y1971395D01*
X6215430Y1972157D01*
X6221526Y1973427D01*
X6227419Y1975154D01*
X6233109Y1977288D01*
X6238595Y1979828D01*
X6243828Y1982825D01*
X6248806Y1986178D01*
X6253480Y1989886D01*
X6257848Y1993950D01*
X6261912Y1998319D01*
X6265621Y2003043D01*
X6268974Y2007971D01*
X6271971Y2013204D01*
X6274511Y2018690D01*
X6276695Y2024380D01*
X6278372Y2030272D01*
X6279642Y2036368D01*
X6280404Y2042617D01*
X6280658Y2048967D01*
X6280658Y2375001D01*
X6280404Y2381351D01*
X6279642Y2387600D01*
X6278372Y2393696D01*
X6276695Y2399588D01*
X6274511Y2405278D01*
X6271971Y2410764D01*
X6268974Y2415997D01*
X6265621Y2420975D01*
X6261912Y2425649D01*
X6257848Y2430018D01*
X6253480Y2434082D01*
X6248806Y2437790D01*
X6243828Y2441143D01*
X6238595Y2444140D01*
X6233109Y2446680D01*
X6227419Y2448864D01*
X6221526Y2450541D01*
X6215430Y2451811D01*
X6209182Y2452573D01*
G37*
G36*
X6202172Y2352852D02*
G01*
X6194145Y2352344D01*
X6187186Y2350719D01*
X6181191Y2348026D01*
X6176264Y2344216D01*
X6172352Y2339340D01*
X6169609Y2333498D01*
X6167932Y2326741D01*
X6167374Y2319070D01*
X6167374Y2303576D01*
X6238240Y2303576D01*
X6238240Y2322118D01*
X6237630Y2328773D01*
X6235801Y2334717D01*
X6232804Y2339949D01*
X6228588Y2344470D01*
X6223203Y2348179D01*
X6217005Y2350770D01*
X6209995Y2352344D01*
G37*
G36*
X5702808Y1277823D02*
G01*
X5696407Y1277569D01*
X5690209Y1276807D01*
X5684113Y1275537D01*
X5678220Y1273860D01*
X5672531Y1271727D01*
X5667044Y1269136D01*
X5661812Y1266139D01*
X5656834Y1262786D01*
X5652160Y1259078D01*
X5647791Y1255014D01*
X5643727Y1250645D01*
X5640019Y1245971D01*
X5636666Y1240993D01*
X5633669Y1235760D01*
X5631129Y1230274D01*
X5628944Y1224584D01*
X5627268Y1218692D01*
X5625998Y1212596D01*
X5625236Y1206398D01*
X5624982Y1199946D01*
X5650331Y1199946D01*
X5755233Y1161338D01*
X5755233Y1139240D01*
X5650331Y1100378D01*
X5650331Y1123238D01*
X5721350Y1145946D01*
X5737453Y1150416D01*
X5731103Y1151940D01*
X5717641Y1155750D01*
X5650331Y1177340D01*
X5650331Y1199946D01*
X5624982Y1199946D01*
X5624982Y1056944D01*
X5648807Y1056944D01*
X5649264Y1064971D01*
X5650636Y1071930D01*
X5652973Y1077925D01*
X5656173Y1082852D01*
X5660136Y1086866D01*
X5664860Y1089710D01*
X5670397Y1091438D01*
X5676747Y1091996D01*
X5680913Y1091692D01*
X5684824Y1090726D01*
X5688431Y1089152D01*
X5691733Y1086916D01*
X5694730Y1084122D01*
X5697067Y1080871D01*
X5698794Y1077163D01*
X5699861Y1072946D01*
X5700115Y1072946D01*
X5701334Y1077772D01*
X5703112Y1082040D01*
X5705500Y1085748D01*
X5708497Y1088948D01*
X5712053Y1091488D01*
X5716117Y1093317D01*
X5720689Y1094435D01*
X5725769Y1094790D01*
X5732729Y1094181D01*
X5738876Y1092301D01*
X5744159Y1089202D01*
X5748629Y1084884D01*
X5752185Y1079550D01*
X5754725Y1073150D01*
X5756249Y1065682D01*
X5756757Y1057198D01*
X5756249Y1048715D01*
X5754725Y1041196D01*
X5752185Y1034745D01*
X5748629Y1029258D01*
X5744159Y1024940D01*
X5738876Y1021842D01*
X5732729Y1019962D01*
X5725769Y1019352D01*
X5720994Y1019708D01*
X5716625Y1020826D01*
X5712612Y1022654D01*
X5709005Y1025194D01*
X5705906Y1028395D01*
X5703417Y1032052D01*
X5701588Y1036269D01*
X5700369Y1040942D01*
X5700115Y1040942D01*
X5698947Y1036828D01*
X5697118Y1033221D01*
X5694730Y1029969D01*
X5691733Y1027226D01*
X5688330Y1024890D01*
X5684621Y1023213D01*
X5680710Y1022248D01*
X5676493Y1021892D01*
X5670448Y1022451D01*
X5665063Y1024178D01*
X5660288Y1027023D01*
X5656173Y1031036D01*
X5652973Y1036066D01*
X5650636Y1042111D01*
X5649264Y1049020D01*
X5648807Y1056944D01*
X5624982Y1056944D01*
X5624982Y1004112D01*
X5755233Y1004112D01*
X5755233Y982522D01*
X5732627Y982522D01*
X5732627Y1004112D01*
X5624982Y1004112D01*
X5624982Y924102D01*
X5650331Y924102D01*
X5650331Y943914D01*
X5739739Y943914D01*
X5739739Y968044D01*
X5755233Y968044D01*
X5755233Y897178D01*
X5739739Y897178D01*
X5739739Y923086D01*
X5668111Y923086D01*
X5683859Y897940D01*
X5667349Y897940D01*
X5650331Y924102D01*
X5624982Y924102D01*
X5624982Y897128D01*
X5625236Y890727D01*
X5625998Y884529D01*
X5627268Y878433D01*
X5628944Y872540D01*
X5631129Y866851D01*
X5633669Y861364D01*
X5636666Y856132D01*
X5640019Y851153D01*
X5643727Y846480D01*
X5647791Y842111D01*
X5652160Y838047D01*
X5656834Y834339D01*
X5661812Y830986D01*
X5667044Y827989D01*
X5672531Y825398D01*
X5678220Y823264D01*
X5684113Y821588D01*
X5690209Y820318D01*
X5696407Y819556D01*
X5702808Y819302D01*
X5709208Y819556D01*
X5715457Y820318D01*
X5721502Y821588D01*
X5727395Y823264D01*
X5733084Y825398D01*
X5738571Y827989D01*
X5743803Y830986D01*
X5748782Y834339D01*
X5753455Y838047D01*
X5757824Y842111D01*
X5761888Y846480D01*
X5765647Y851153D01*
X5769000Y856132D01*
X5771946Y861364D01*
X5774537Y866851D01*
X5776671Y872540D01*
X5778398Y878433D01*
X5779617Y884529D01*
X5780379Y890727D01*
X5780633Y897128D01*
X5780633Y1199997D01*
X5780379Y1206398D01*
X5779617Y1212596D01*
X5778398Y1218692D01*
X5776671Y1224584D01*
X5774537Y1230274D01*
X5771946Y1235760D01*
X5769000Y1240993D01*
X5765647Y1245971D01*
X5761888Y1250645D01*
X5757824Y1255014D01*
X5753455Y1259078D01*
X5748782Y1262786D01*
X5743803Y1266139D01*
X5738571Y1269136D01*
X5733084Y1271727D01*
X5727395Y1273860D01*
X5721502Y1275537D01*
X5715457Y1276807D01*
X5709208Y1277569D01*
G37*
G36*
X5723991Y1072946D02*
G01*
X5716778Y1071930D01*
X5711596Y1068882D01*
X5708497Y1063802D01*
X5707481Y1056690D01*
X5707735Y1053084D01*
X5708548Y1049985D01*
X5709920Y1047242D01*
X5711799Y1045006D01*
X5714187Y1043228D01*
X5717082Y1041958D01*
X5720435Y1041196D01*
X5724245Y1040942D01*
X5728512Y1041196D01*
X5732170Y1041958D01*
X5735269Y1043228D01*
X5737707Y1045006D01*
X5739587Y1047292D01*
X5740958Y1050086D01*
X5741771Y1053388D01*
X5742025Y1057198D01*
X5741771Y1061008D01*
X5740958Y1064260D01*
X5739587Y1066952D01*
X5737707Y1069136D01*
X5735218Y1070813D01*
X5732119Y1071981D01*
X5728360Y1072692D01*
G37*
G36*
X5677763Y1070660D02*
G01*
X5674309Y1070457D01*
X5671362Y1069797D01*
X5668873Y1068679D01*
X5666841Y1067104D01*
X5665419Y1065225D01*
X5664352Y1062939D01*
X5663742Y1060145D01*
X5663539Y1056944D01*
X5664454Y1050950D01*
X5667095Y1046683D01*
X5671566Y1044092D01*
X5677763Y1043228D01*
X5684316Y1044092D01*
X5688990Y1046683D01*
X5691835Y1050950D01*
X5692749Y1056944D01*
X5692546Y1060145D01*
X5691936Y1062939D01*
X5690920Y1065225D01*
X5689447Y1067104D01*
X5687364Y1068679D01*
X5684774Y1069797D01*
X5681522Y1070457D01*
G37*
G36*
X5950000Y1282293D02*
G01*
X5943600Y1282039D01*
X5937351Y1281277D01*
X5931306Y1280058D01*
X5925362Y1278331D01*
X5919673Y1276197D01*
X5914237Y1273606D01*
X5909005Y1270660D01*
X5904026Y1267307D01*
X5899353Y1263599D01*
X5894933Y1259535D01*
X5890920Y1255115D01*
X5887161Y1250442D01*
X5883808Y1245463D01*
X5880862Y1240231D01*
X5878271Y1234795D01*
X5876137Y1229106D01*
X5874410Y1223162D01*
X5873191Y1217117D01*
X5872429Y1210868D01*
X5872175Y1204417D01*
X5897524Y1204417D01*
X6002426Y1165809D01*
X6002426Y1143711D01*
X5897524Y1104849D01*
X5897524Y1127709D01*
X5968542Y1150416D01*
X5984646Y1154887D01*
X5978296Y1156411D01*
X5964834Y1160221D01*
X5897524Y1181811D01*
X5897524Y1204417D01*
X5872175Y1204417D01*
X5872175Y1060653D01*
X5896000Y1060653D01*
X5896457Y1068476D01*
X5897829Y1075334D01*
X5900115Y1081278D01*
X5903366Y1086307D01*
X5907379Y1090422D01*
X5912154Y1093368D01*
X5917692Y1095146D01*
X5923940Y1095705D01*
X5928664Y1095349D01*
X5932881Y1094282D01*
X5936640Y1092454D01*
X5939942Y1089863D01*
X5942838Y1086662D01*
X5945276Y1082852D01*
X5947156Y1078433D01*
X5948578Y1073353D01*
X5948832Y1073353D01*
X5949797Y1078992D01*
X5951423Y1083970D01*
X5953709Y1088288D01*
X5956706Y1091895D01*
X5960211Y1094689D01*
X5964123Y1096670D01*
X5968441Y1097889D01*
X5973216Y1098245D01*
X5980176Y1097686D01*
X5986272Y1095857D01*
X5991606Y1092860D01*
X5996076Y1088593D01*
X5999632Y1083259D01*
X6002172Y1076909D01*
X6003696Y1069543D01*
X6004204Y1061161D01*
X6003696Y1053134D01*
X6002223Y1045921D01*
X5999784Y1039672D01*
X5996330Y1034237D01*
X5992063Y1029817D01*
X5986932Y1026363D01*
X5980887Y1023975D01*
X5973978Y1022553D01*
X5971946Y1043889D01*
X5978601Y1045768D01*
X5983376Y1049223D01*
X5986221Y1054404D01*
X5987186Y1061161D01*
X5986932Y1064666D01*
X5986221Y1067765D01*
X5985052Y1070508D01*
X5983376Y1072845D01*
X5981293Y1074623D01*
X5978702Y1075893D01*
X5975604Y1076655D01*
X5971946Y1076909D01*
X5968695Y1076604D01*
X5965850Y1075639D01*
X5963361Y1074064D01*
X5961278Y1071829D01*
X5959703Y1069035D01*
X5958586Y1065580D01*
X5957925Y1061516D01*
X5957722Y1049477D01*
X5940704Y1049477D01*
X5940704Y1056335D01*
X5940450Y1060653D01*
X5939790Y1064310D01*
X5938672Y1067358D01*
X5937148Y1069797D01*
X5935014Y1071829D01*
X5932576Y1073251D01*
X5929680Y1074115D01*
X5926480Y1074369D01*
X5923432Y1074166D01*
X5920740Y1073505D01*
X5918352Y1072388D01*
X5916320Y1070813D01*
X5914745Y1068832D01*
X5913628Y1066444D01*
X5912967Y1063650D01*
X5912764Y1060399D01*
X5912967Y1057300D01*
X5913628Y1054506D01*
X5914745Y1052068D01*
X5916320Y1049985D01*
X5918250Y1048207D01*
X5920638Y1046835D01*
X5923330Y1045921D01*
X5926480Y1045413D01*
X5924956Y1024331D01*
X5918454Y1025702D01*
X5912764Y1028039D01*
X5907786Y1031290D01*
X5903620Y1035507D01*
X5900267Y1040739D01*
X5897880Y1046632D01*
X5896457Y1053287D01*
X5896000Y1060653D01*
X5872175Y1060653D01*
X5872175Y1008583D01*
X6002426Y1008583D01*
X6002426Y986993D01*
X5979820Y986993D01*
X5979820Y1008583D01*
X5872175Y1008583D01*
X5872175Y933653D01*
X5896000Y933653D01*
X5896457Y941476D01*
X5897829Y948334D01*
X5900115Y954278D01*
X5903366Y959307D01*
X5907379Y963320D01*
X5912154Y966165D01*
X5917692Y967892D01*
X5923940Y968451D01*
X5928664Y968146D01*
X5932881Y967079D01*
X5936640Y965352D01*
X5939942Y962863D01*
X5942838Y959662D01*
X5945276Y955751D01*
X5947156Y951280D01*
X5948578Y946099D01*
X5948832Y946099D01*
X5949797Y951839D01*
X5951423Y956868D01*
X5953709Y961136D01*
X5956706Y964641D01*
X5960211Y967536D01*
X5964123Y969619D01*
X5968441Y970838D01*
X5973216Y971245D01*
X5980176Y970686D01*
X5986272Y968857D01*
X5991606Y965860D01*
X5996076Y961593D01*
X5999632Y956259D01*
X6002172Y949909D01*
X6003696Y942543D01*
X6004204Y934161D01*
X6003696Y926134D01*
X6002223Y918921D01*
X5999784Y912672D01*
X5996330Y907237D01*
X5992063Y902817D01*
X5986932Y899363D01*
X5980887Y896975D01*
X5973978Y895553D01*
X5971946Y916889D01*
X5978601Y918667D01*
X5983376Y922070D01*
X5986221Y927150D01*
X5987186Y933907D01*
X5986932Y937514D01*
X5986221Y940663D01*
X5985052Y943356D01*
X5983376Y945591D01*
X5981293Y947521D01*
X5978702Y948842D01*
X5975604Y949655D01*
X5971946Y949909D01*
X5968695Y949604D01*
X5965850Y948639D01*
X5963361Y947064D01*
X5961278Y944829D01*
X5959703Y942035D01*
X5958586Y938580D01*
X5957925Y934516D01*
X5957722Y922477D01*
X5940704Y922477D01*
X5940704Y929335D01*
X5940450Y933551D01*
X5939790Y937158D01*
X5938672Y940257D01*
X5937148Y942797D01*
X5935014Y944829D01*
X5932576Y946251D01*
X5929680Y947115D01*
X5926480Y947369D01*
X5923432Y947166D01*
X5920740Y946505D01*
X5918352Y945387D01*
X5916320Y943813D01*
X5914745Y941832D01*
X5913628Y939393D01*
X5912967Y936498D01*
X5912764Y933145D01*
X5912967Y930148D01*
X5913628Y927404D01*
X5914745Y924915D01*
X5916320Y922731D01*
X5918250Y920953D01*
X5920638Y919581D01*
X5923330Y918667D01*
X5926480Y918159D01*
X5924956Y897331D01*
X5918454Y898601D01*
X5912764Y900887D01*
X5907786Y904189D01*
X5903620Y908507D01*
X5900267Y913739D01*
X5897880Y919632D01*
X5896457Y926287D01*
X5896000Y933653D01*
X5872175Y933653D01*
X5872175Y895502D01*
X5872429Y889152D01*
X5873191Y882903D01*
X5874410Y876808D01*
X5876137Y870915D01*
X5878271Y865225D01*
X5880862Y859739D01*
X5883808Y854506D01*
X5887161Y849579D01*
X5890920Y844854D01*
X5894933Y840486D01*
X5899353Y836421D01*
X5904026Y832713D01*
X5909005Y829360D01*
X5914237Y826363D01*
X5919673Y823823D01*
X5925362Y821639D01*
X5931306Y819962D01*
X5937351Y818692D01*
X5943600Y817930D01*
X5950000Y817676D01*
X5956350Y817930D01*
X5962599Y818692D01*
X5968695Y819962D01*
X5974588Y821639D01*
X5980277Y823823D01*
X5985764Y826363D01*
X5990996Y829360D01*
X5995924Y832713D01*
X6000648Y836421D01*
X6005017Y840486D01*
X6009081Y844854D01*
X6012789Y849579D01*
X6016142Y854506D01*
X6019139Y859739D01*
X6021679Y865225D01*
X6023864Y870915D01*
X6025540Y876808D01*
X6026810Y882903D01*
X6027572Y889152D01*
X6027826Y895502D01*
X6027826Y1204468D01*
X6027572Y1210868D01*
X6026810Y1217117D01*
X6025540Y1223162D01*
X6023864Y1229106D01*
X6021679Y1234795D01*
X6019139Y1240231D01*
X6016142Y1245463D01*
X6012789Y1250442D01*
X6009081Y1255115D01*
X6005017Y1259535D01*
X6000648Y1263599D01*
X5995924Y1267307D01*
X5990996Y1270660D01*
X5985764Y1273606D01*
X5980277Y1276197D01*
X5974588Y1278331D01*
X5968695Y1280058D01*
X5962599Y1281277D01*
X5956350Y1282039D01*
G37*
G36*
X6202832Y1277823D02*
G01*
X6196431Y1277569D01*
X6190183Y1276807D01*
X6184087Y1275537D01*
X6178194Y1273860D01*
X6172504Y1271727D01*
X6167069Y1269136D01*
X6161836Y1266139D01*
X6156858Y1262786D01*
X6152184Y1259078D01*
X6147765Y1255014D01*
X6143701Y1250645D01*
X6139992Y1245971D01*
X6136640Y1240993D01*
X6133693Y1235760D01*
X6131102Y1230274D01*
X6128969Y1224584D01*
X6127242Y1218692D01*
X6126022Y1212596D01*
X6125260Y1206398D01*
X6125006Y1199896D01*
X6167374Y1199896D01*
X6167374Y1166114D01*
X6255258Y1166114D01*
X6255258Y1144016D01*
X6167374Y1144016D01*
X6167374Y1110234D01*
X6150356Y1110234D01*
X6150356Y1199896D01*
X6125006Y1199896D01*
X6125006Y1051814D01*
X6150356Y1051814D01*
X6150356Y1077722D01*
X6255258Y1115822D01*
X6255258Y1093978D01*
X6228588Y1084834D01*
X6228588Y1044702D01*
X6255258Y1035558D01*
X6255258Y1013460D01*
X6150356Y1051814D01*
X6125006Y1051814D01*
X6125006Y909828D01*
X6150356Y909828D01*
X6150356Y957834D01*
X6150762Y966927D01*
X6151981Y974801D01*
X6154064Y981506D01*
X6156960Y987044D01*
X6160770Y991412D01*
X6165342Y994511D01*
X6170676Y996340D01*
X6176772Y996950D01*
X6181039Y996645D01*
X6184950Y995680D01*
X6188506Y994105D01*
X6191758Y991869D01*
X6194552Y989126D01*
X6196888Y985723D01*
X6198717Y981659D01*
X6200140Y976884D01*
X6201206Y982878D01*
X6202832Y988060D01*
X6205118Y992530D01*
X6208014Y996187D01*
X6211570Y999083D01*
X6215634Y1001166D01*
X6220206Y1002385D01*
X6225286Y1002792D01*
X6231991Y1002131D01*
X6237884Y1000150D01*
X6243015Y996797D01*
X6247384Y992124D01*
X6250787Y986282D01*
X6253276Y979373D01*
X6254750Y971448D01*
X6255258Y962406D01*
X6255258Y909828D01*
X6125006Y909828D01*
X6125006Y898652D01*
X6150356Y898652D01*
X6255258Y860044D01*
X6255258Y837946D01*
X6150356Y799084D01*
X6150356Y821944D01*
X6221374Y844651D01*
X6237478Y849121D01*
X6231128Y850646D01*
X6217666Y854456D01*
X6150356Y876046D01*
X6150356Y898652D01*
X6125006Y898652D01*
X6125006Y799134D01*
X6125260Y792734D01*
X6126022Y786485D01*
X6127242Y780440D01*
X6128969Y774547D01*
X6131102Y768858D01*
X6133693Y763371D01*
X6136640Y758139D01*
X6139992Y753160D01*
X6143701Y748487D01*
X6147765Y744118D01*
X6152184Y740054D01*
X6156858Y736346D01*
X6161836Y732942D01*
X6167069Y729996D01*
X6172504Y727405D01*
X6178194Y725271D01*
X6184087Y723544D01*
X6190183Y722325D01*
X6196431Y721563D01*
X6202832Y721309D01*
X6209182Y721563D01*
X6215430Y722325D01*
X6221526Y723544D01*
X6227419Y725271D01*
X6233109Y727405D01*
X6238595Y729996D01*
X6243828Y732942D01*
X6248755Y736346D01*
X6253480Y740054D01*
X6257848Y744118D01*
X6261912Y748487D01*
X6265621Y753160D01*
X6268974Y758139D01*
X6271971Y763371D01*
X6274511Y768858D01*
X6276644Y774547D01*
X6278372Y780440D01*
X6279642Y786485D01*
X6280404Y792734D01*
X6280658Y799134D01*
X6280658Y1199997D01*
X6280404Y1206398D01*
X6279642Y1212596D01*
X6278372Y1218692D01*
X6276644Y1224584D01*
X6274511Y1230274D01*
X6271971Y1235760D01*
X6268974Y1240993D01*
X6265621Y1245971D01*
X6261912Y1250645D01*
X6257848Y1255014D01*
X6253480Y1259078D01*
X6248755Y1262786D01*
X6243828Y1266139D01*
X6238595Y1269136D01*
X6233109Y1271727D01*
X6227419Y1273860D01*
X6221526Y1275537D01*
X6215430Y1276807D01*
X6209182Y1277569D01*
G37*
G36*
X6211824Y1079754D02*
G01*
X6171692Y1066292D01*
X6166612Y1064768D01*
X6181140Y1060246D01*
X6211824Y1049782D01*
G37*
G36*
X6223508Y980948D02*
G01*
X6217056Y979627D01*
X6212433Y975614D01*
X6209690Y968959D01*
X6208776Y959612D01*
X6208776Y931926D01*
X6239002Y931926D01*
X6239002Y960628D01*
X6238748Y965504D01*
X6238036Y969670D01*
X6236817Y973124D01*
X6235192Y975868D01*
X6233007Y978103D01*
X6230366Y979678D01*
X6227165Y980643D01*
G37*
G36*
X6179820Y974852D02*
G01*
X6176518Y974598D01*
X6173724Y973734D01*
X6171438Y972312D01*
X6169660Y970280D01*
X6168288Y967740D01*
X6167374Y964641D01*
X6166764Y961034D01*
X6166612Y956818D01*
X6166612Y931926D01*
X6192774Y931926D01*
X6192774Y957071D01*
X6192570Y961339D01*
X6191910Y965047D01*
X6190894Y968095D01*
X6189472Y970534D01*
X6187592Y972464D01*
X6185408Y973785D01*
X6182766Y974598D01*
G37*
D10*
X629318Y827338D02*
G01*
X610847Y845812D01*
X583143Y855047D01*
X546193Y855047D01*
X518490Y845812D01*
X500006Y827338D01*
X500006Y808865D01*
X509247Y790394D01*
X518490Y781156D01*
X536953Y771921D01*
X592371Y753447D01*
X610847Y744212D01*
X620090Y734976D01*
X629318Y716503D01*
X629318Y688794D01*
X610847Y670321D01*
X583143Y661085D01*
X546193Y661085D01*
X518490Y670321D01*
X500006Y688794D01*
X690278Y855047D02*
G01*
X690278Y661085D01*
X690278Y855047D02*
G01*
X819589Y661085D01*
X819589Y855047D02*
G01*
X819589Y661085D01*
X889782Y771921D02*
G01*
X880554Y762685D01*
X889782Y753447D01*
X899017Y762685D01*
X889782Y771921D01*
X889782Y707265D02*
G01*
X880554Y698030D01*
X889782Y688794D01*
X899017Y698030D01*
X889782Y707265D01*
X500006Y1355046D02*
G01*
X500006Y1161084D01*
X500006Y1355046D02*
G01*
X564664Y1355046D01*
X592371Y1345811D01*
X610847Y1327337D01*
X620090Y1308864D01*
X629318Y1281155D01*
X629318Y1234975D01*
X620090Y1207264D01*
X610847Y1188793D01*
X592371Y1170320D01*
X564664Y1161084D01*
X500006Y1161084D01*
X801110Y1290393D02*
G01*
X801110Y1161084D01*
X801110Y1262684D02*
G01*
X782640Y1281155D01*
X764171Y1290393D01*
X736457Y1290393D01*
X717989Y1281155D01*
X699510Y1262684D01*
X690278Y1234975D01*
X690278Y1216502D01*
X699510Y1188793D01*
X717989Y1170320D01*
X736457Y1161084D01*
X764171Y1161084D01*
X782640Y1170320D01*
X801110Y1188793D01*
X889782Y1355046D02*
G01*
X889782Y1198029D01*
X899017Y1170320D01*
X917496Y1161084D01*
X935964Y1161084D01*
X862070Y1290393D02*
G01*
X926724Y1290393D01*
X996922Y1234975D02*
G01*
X1107757Y1234975D01*
X1107757Y1253446D01*
X1098522Y1271920D01*
X1089289Y1281155D01*
X1070810Y1290393D01*
X1043104Y1290393D01*
X1024636Y1281155D01*
X1006157Y1262684D01*
X996922Y1234975D01*
X996922Y1216502D01*
X1006157Y1188793D01*
X1024636Y1170320D01*
X1043104Y1161084D01*
X1070810Y1161084D01*
X1089289Y1170320D01*
X1107757Y1188793D01*
X1177960Y1271920D02*
G01*
X1168725Y1262684D01*
X1177960Y1253446D01*
X1187188Y1262684D01*
X1177960Y1271920D01*
X1177960Y1207264D02*
G01*
X1168725Y1198029D01*
X1177960Y1188793D01*
X1187188Y1198029D01*
X1177960Y1207264D01*
X499996Y1855043D02*
G01*
X573892Y1661081D01*
X647781Y1855043D02*
G01*
X573892Y1661081D01*
X708738Y1734972D02*
G01*
X819574Y1734972D01*
X819574Y1753443D01*
X810338Y1771916D01*
X801110Y1781152D01*
X782627Y1790390D01*
X754921Y1790390D01*
X736452Y1781152D01*
X717974Y1762681D01*
X708738Y1734972D01*
X708738Y1716498D01*
X717974Y1688790D01*
X736452Y1670316D01*
X754921Y1661081D01*
X782627Y1661081D01*
X801110Y1670316D01*
X819574Y1688790D01*
X880539Y1790390D02*
G01*
X880539Y1661081D01*
X880539Y1734972D02*
G01*
X889782Y1762681D01*
X908245Y1781152D01*
X926713Y1790390D01*
X954435Y1790390D01*
X1116985Y1762681D02*
G01*
X1107749Y1781152D01*
X1080038Y1790390D01*
X1052332Y1790390D01*
X1024628Y1781152D01*
X1015385Y1762681D01*
X1024628Y1744207D01*
X1043091Y1734972D01*
X1089281Y1725734D01*
X1107749Y1716498D01*
X1116985Y1698025D01*
X1116985Y1688790D01*
X1107749Y1670316D01*
X1080038Y1661081D01*
X1052332Y1661081D01*
X1024628Y1670316D01*
X1015385Y1688790D01*
X1177950Y1855043D02*
G01*
X1187178Y1845807D01*
X1196421Y1855043D01*
X1187178Y1864281D01*
X1177950Y1855043D01*
X1187178Y1790390D02*
G01*
X1187178Y1661081D01*
X1303571Y1790390D02*
G01*
X1285092Y1781152D01*
X1266614Y1762681D01*
X1257381Y1734972D01*
X1257381Y1716498D01*
X1266614Y1688790D01*
X1285092Y1670316D01*
X1303571Y1661081D01*
X1331274Y1661081D01*
X1349745Y1670316D01*
X1368214Y1688790D01*
X1377449Y1716498D01*
X1377449Y1734972D01*
X1368214Y1762681D01*
X1349745Y1781152D01*
X1331274Y1790390D01*
X1303571Y1790390D01*
X1438417Y1790390D02*
G01*
X1438417Y1661081D01*
X1438417Y1753443D02*
G01*
X1466121Y1781152D01*
X1484591Y1790390D01*
X1512310Y1790390D01*
X1530774Y1781152D01*
X1540017Y1753443D01*
X1540017Y1661081D01*
X1743217Y1818098D02*
G01*
X1761685Y1827334D01*
X1789391Y1855043D01*
X1789391Y1661081D01*
X1859592Y1707261D02*
G01*
X1850356Y1698025D01*
X1859592Y1688790D01*
X1868835Y1698025D01*
X1859592Y1707261D01*
X1985203Y1855043D02*
G01*
X1957491Y1845807D01*
X1939028Y1818098D01*
X1929785Y1771916D01*
X1929785Y1744207D01*
X1939028Y1698025D01*
X1957491Y1670316D01*
X1985203Y1661081D01*
X2003681Y1661081D01*
X2031385Y1670316D01*
X2049863Y1698025D01*
X2059091Y1744207D01*
X2059091Y1771916D01*
X2049863Y1818098D01*
X2031385Y1845807D01*
X2003681Y1855043D01*
X1985203Y1855043D01*
X500072Y2355052D02*
G01*
X500072Y2160996D01*
X500072Y2355052D02*
G01*
X583130Y2355052D01*
X610816Y2345908D01*
X619960Y2336510D01*
X629358Y2317968D01*
X629358Y2299680D01*
X619960Y2281138D01*
X610816Y2271994D01*
X583130Y2262596D01*
X500072Y2262596D01*
X564588Y2262596D02*
G01*
X629358Y2160996D01*
X690318Y2355052D02*
G01*
X690318Y2160996D01*
X690318Y2355052D02*
G01*
X773376Y2355052D01*
X801062Y2345908D01*
X810460Y2336510D01*
X819604Y2317968D01*
X819604Y2290282D01*
X810460Y2271994D01*
X801062Y2262596D01*
X773376Y2253452D01*
X690318Y2253452D01*
X880564Y2355052D02*
G01*
X889708Y2345908D01*
X899106Y2355052D01*
X889708Y2364196D01*
X880564Y2355052D01*
X889708Y2290282D02*
G01*
X889708Y2160996D01*
X1240736Y2308824D02*
G01*
X1231592Y2327366D01*
X1213050Y2345908D01*
X1194508Y2355052D01*
X1157678Y2355052D01*
X1139136Y2345908D01*
X1120594Y2327366D01*
X1111450Y2308824D01*
X1102306Y2281138D01*
X1102306Y2234910D01*
X1111450Y2207224D01*
X1120594Y2188682D01*
X1139136Y2170394D01*
X1157678Y2160996D01*
X1194508Y2160996D01*
X1213050Y2170394D01*
X1231592Y2188682D01*
X1240736Y2207224D01*
X1301696Y2355052D02*
G01*
X1301696Y2160996D01*
X1301696Y2355052D02*
G01*
X1375610Y2160996D01*
X1449524Y2355052D02*
G01*
X1375610Y2160996D01*
X1449524Y2355052D02*
G01*
X1449524Y2160996D01*
X1652724Y2355052D02*
G01*
X1661868Y2345908D01*
X1671266Y2355052D01*
X1661868Y2364196D01*
X1652724Y2355052D01*
X1661868Y2290282D02*
G01*
X1661868Y2160996D01*
X1732226Y2290282D02*
G01*
X1732226Y2160996D01*
X1732226Y2253452D02*
G01*
X1759912Y2281138D01*
X1778200Y2290282D01*
X1806140Y2290282D01*
X1824428Y2281138D01*
X1833826Y2253452D01*
X1833826Y2160996D01*
X1833826Y2253452D02*
G01*
X1861512Y2281138D01*
X1879800Y2290282D01*
X1907740Y2290282D01*
X1926028Y2281138D01*
X1935426Y2253452D01*
X1935426Y2160996D01*
X1996386Y2290282D02*
G01*
X1996386Y2096480D01*
X1996386Y2262596D02*
G01*
X2014674Y2281138D01*
X2033216Y2290282D01*
X2060902Y2290282D01*
X2079444Y2281138D01*
X2097986Y2262596D01*
X2107130Y2234910D01*
X2107130Y2216368D01*
X2097986Y2188682D01*
X2079444Y2170394D01*
X2060902Y2160996D01*
X2033216Y2160996D01*
X2014674Y2170394D01*
X1996386Y2188682D01*
X2168090Y2234910D02*
G01*
X2278834Y2234910D01*
X2278834Y2253452D01*
X2269690Y2271994D01*
X2260546Y2281138D01*
X2242004Y2290282D01*
X2214318Y2290282D01*
X2195776Y2281138D01*
X2177234Y2262596D01*
X2168090Y2234910D01*
X2168090Y2216368D01*
X2177234Y2188682D01*
X2195776Y2170394D01*
X2214318Y2160996D01*
X2242004Y2160996D01*
X2260546Y2170394D01*
X2278834Y2188682D01*
X2339794Y2290282D02*
G01*
X2339794Y2160996D01*
X2339794Y2234910D02*
G01*
X2349192Y2262596D01*
X2367480Y2281138D01*
X2386022Y2290282D01*
X2413708Y2290282D01*
X2576268Y2262596D02*
G01*
X2567124Y2281138D01*
X2539438Y2290282D01*
X2511752Y2290282D01*
X2484066Y2281138D01*
X2474668Y2262596D01*
X2484066Y2244308D01*
X2502354Y2234910D01*
X2548582Y2225766D01*
X2567124Y2216368D01*
X2576268Y2198080D01*
X2576268Y2188682D01*
X2567124Y2170394D01*
X2539438Y2160996D01*
X2511752Y2160996D01*
X2484066Y2170394D01*
X2474668Y2188682D01*
X2683456Y2290282D02*
G01*
X2664914Y2281138D01*
X2646626Y2262596D01*
X2637228Y2234910D01*
X2637228Y2216368D01*
X2646626Y2188682D01*
X2664914Y2170394D01*
X2683456Y2160996D01*
X2711142Y2160996D01*
X2729684Y2170394D01*
X2748226Y2188682D01*
X2757370Y2216368D01*
X2757370Y2234910D01*
X2748226Y2262596D01*
X2729684Y2281138D01*
X2711142Y2290282D01*
X2683456Y2290282D01*
X2818330Y2290282D02*
G01*
X2818330Y2160996D01*
X2818330Y2253452D02*
G01*
X2846016Y2281138D01*
X2864558Y2290282D01*
X2892244Y2290282D01*
X2910786Y2281138D01*
X2919930Y2253452D01*
X2919930Y2160996D01*
X3091634Y2290282D02*
G01*
X3091634Y2160996D01*
X3091634Y2262596D02*
G01*
X3073346Y2281138D01*
X3054804Y2290282D01*
X3027118Y2290282D01*
X3008576Y2281138D01*
X2990034Y2262596D01*
X2980890Y2234910D01*
X2980890Y2216368D01*
X2990034Y2188682D01*
X3008576Y2170394D01*
X3027118Y2160996D01*
X3054804Y2160996D01*
X3073346Y2170394D01*
X3091634Y2188682D01*
X3180280Y2355052D02*
G01*
X3180280Y2198080D01*
X3189678Y2170394D01*
X3208220Y2160996D01*
X3226508Y2160996D01*
X3152594Y2290282D02*
G01*
X3217364Y2290282D01*
X3333696Y2290282D02*
G01*
X3315154Y2281138D01*
X3296866Y2262596D01*
X3287468Y2234910D01*
X3287468Y2216368D01*
X3296866Y2188682D01*
X3315154Y2170394D01*
X3333696Y2160996D01*
X3361382Y2160996D01*
X3379924Y2170394D01*
X3398466Y2188682D01*
X3407610Y2216368D01*
X3407610Y2234910D01*
X3398466Y2262596D01*
X3379924Y2281138D01*
X3361382Y2290282D01*
X3333696Y2290282D01*
X3468570Y2290282D02*
G01*
X3468570Y2160996D01*
X3468570Y2234910D02*
G01*
X3477714Y2262596D01*
X3496256Y2281138D01*
X3514798Y2290282D01*
X3542484Y2290282D01*
D11*
X3926809Y1290302D02*
G01*
X3926809Y1207244D01*
X3921729Y1191750D01*
X3916395Y1186416D01*
X3906235Y1181336D01*
X3895821Y1181336D01*
X3885407Y1186416D01*
X3880073Y1191750D01*
X3874993Y1207244D01*
X3874993Y1217658D01*
X3966433Y1264394D02*
G01*
X3966433Y1269474D01*
X3971513Y1279888D01*
X3976847Y1285222D01*
X3987261Y1290302D01*
X4007835Y1290302D01*
X4018249Y1285222D01*
X4023583Y1279888D01*
X4028663Y1269474D01*
X4028663Y1259060D01*
X4023583Y1248900D01*
X4013169Y1233152D01*
X3961099Y1181336D01*
X4033997Y1181336D01*
X6477058Y1665300D02*
G01*
X6477058Y1582242D01*
X6471724Y1566494D01*
X6466644Y1561414D01*
X6456230Y1556334D01*
X6445816Y1556334D01*
X6435402Y1561414D01*
X6430068Y1566494D01*
X6424988Y1582242D01*
X6424988Y1592656D01*
X6511348Y1644472D02*
G01*
X6521508Y1649806D01*
X6537256Y1665300D01*
X6537256Y1556334D01*
G36*
X1299972Y1499971D02*
G01*
X1299972Y1099972D01*
X3500018Y1099972D01*
X3500018Y1499971D01*
G37*
G36*
X1299972Y999998D02*
G01*
X1299972Y599998D01*
X3500018Y599998D01*
X3500018Y999998D01*
G37*
D12*
X5109989Y2220013D02*
G01*
X5109989Y3005013D01*
X3889992Y1780014D02*
G01*
X3889992Y1355013D01*
X3889992Y2220013D02*
G01*
X3889992Y3005013D01*
X5109989Y1780014D02*
G01*
X5109989Y1355013D01*
X5109989Y1355013D02*
G01*
X3889992Y1355013D01*
X5109989Y3005013D02*
G01*
X3889992Y3005013D01*
D10*
X5564987Y1876996D02*
G01*
X5564987Y1368996D01*
X6326987Y1368996D01*
X6326987Y1876996D01*
X5564987Y1876996D01*
X6051829Y1876996D01*
M02*
