G04 Layer: TopPasteMaskLayer*
G04 EasyEDA v6.5.23, 2023-08-22 14:51:30*
G04 a67cddfb3fce44daa9051d46cbbcc19f,10*
G04 Gerber Generator version 0.2*
G04 Scale: 100 percent, Rotated: No, Reflected: No *
G04 Dimensions in millimeters *
G04 leading zeros omitted , absolute positions ,4 integer and 5 decimal *
%FSLAX45Y45*%
%MOMM*%

%AMMACRO1*4,1,4,-0.2249,1.15,0.2249,1.15,0.2249,-1.15,-0.2249,-1.15,-0.2249,1.15,0*%
%AMMACRO2*4,1,4,-0.225,1.15,0.225,1.15,0.225,-1.15,-0.225,-1.15,-0.225,1.15,0*%
%ADD10MACRO1*%
%ADD11MACRO2*%

%LPD*%
D10*
G01*
X215099Y140045D03*
D11*
G01*
X275107Y140045D03*
G01*
X335102Y140045D03*
G01*
X395096Y140045D03*
D10*
G01*
X455104Y140045D03*
G01*
X515099Y140045D03*
D11*
G01*
X575106Y140045D03*
G01*
X635101Y140045D03*
G01*
X695096Y140045D03*
D10*
G01*
X755103Y140045D03*
G01*
X815098Y140045D03*
D11*
G01*
X875106Y140045D03*
G01*
X935100Y140045D03*
G01*
X995095Y140045D03*
D10*
G01*
X1055103Y140045D03*
G01*
X1115098Y140045D03*
D11*
G01*
X1175105Y140045D03*
G01*
X1235100Y140045D03*
G01*
X1295095Y140045D03*
D10*
G01*
X1355102Y140045D03*
D11*
G01*
X1775104Y140045D03*
G01*
X1835099Y140045D03*
G01*
X1895094Y140045D03*
D10*
G01*
X1955101Y140045D03*
D11*
G01*
X2015108Y140045D03*
G01*
X2075103Y140045D03*
G01*
X2135098Y140045D03*
D10*
G01*
X2195106Y140045D03*
G01*
X2255100Y140045D03*
D11*
G01*
X2315108Y140045D03*
G01*
X2375103Y140045D03*
G01*
X2435098Y140045D03*
D10*
G01*
X2495105Y140045D03*
G01*
X2555100Y140045D03*
D11*
G01*
X2615107Y140045D03*
G01*
X2675102Y140045D03*
G01*
X2735097Y140045D03*
D10*
G01*
X2795104Y140045D03*
G01*
X2855099Y140045D03*
D11*
G01*
X2915107Y140045D03*
G01*
X2975101Y140045D03*
G01*
X3035096Y140045D03*
D10*
G01*
X3095104Y140045D03*
G01*
X3155099Y140045D03*
D11*
G01*
X3215106Y140045D03*
G01*
X3275101Y140045D03*
G01*
X3335096Y140045D03*
D10*
G01*
X3395103Y140045D03*
G01*
X3455098Y140045D03*
D11*
G01*
X3515105Y140045D03*
G01*
X3575100Y140045D03*
G01*
X3635095Y140045D03*
D10*
G01*
X3695103Y140045D03*
G01*
X3755097Y140045D03*
D11*
G01*
X3815105Y140045D03*
G01*
X3875100Y140045D03*
G01*
X3935094Y140045D03*
D10*
G01*
X3995102Y140045D03*
G01*
X4055097Y140045D03*
D11*
G01*
X4115104Y140045D03*
G01*
X4175099Y140045D03*
G01*
X4235094Y140045D03*
D10*
G01*
X4295101Y140045D03*
D11*
G01*
X4355109Y140045D03*
G01*
X4415104Y140045D03*
G01*
X4475098Y140045D03*
G01*
X4535093Y140045D03*
D10*
G01*
X4595101Y140045D03*
D11*
G01*
X4655108Y140045D03*
G01*
X4715103Y140045D03*
G01*
X4775098Y140045D03*
D10*
G01*
X4835105Y140045D03*
G01*
X4895100Y140045D03*
D11*
G01*
X4955108Y140045D03*
G01*
X5015103Y140045D03*
G01*
X5075097Y140045D03*
D10*
G01*
X5135105Y140045D03*
G01*
X5195100Y140045D03*
D11*
G01*
X5255107Y140045D03*
G01*
X5315102Y140045D03*
G01*
X5375097Y140045D03*
D10*
G01*
X5435104Y140045D03*
G01*
X5495099Y140045D03*
D11*
G01*
X5555107Y140045D03*
G01*
X5615101Y140045D03*
G01*
X5675096Y140045D03*
D10*
G01*
X5735104Y140045D03*
G01*
X5795098Y140045D03*
D11*
G01*
X5855106Y140045D03*
G01*
X5915101Y140045D03*
G01*
X5975096Y140045D03*
D10*
G01*
X6035103Y140045D03*
G01*
X6095098Y140045D03*
D11*
G01*
X6155105Y140045D03*
G01*
X6215100Y140045D03*
G01*
X6275095Y140045D03*
D10*
G01*
X6335102Y140045D03*
G01*
X6395097Y140045D03*
D11*
G01*
X6455105Y140045D03*
G01*
X6515100Y140045D03*
M02*
