G04 Layer: TopSolderMaskLayer*
G04 EasyEDA v6.5.23, 2023-08-22 14:51:30*
G04 a67cddfb3fce44daa9051d46cbbcc19f,10*
G04 Gerber Generator version 0.2*
G04 Scale: 100 percent, Rotated: No, Reflected: No *
G04 Dimensions in millimeters *
G04 leading zeros omitted , absolute positions ,4 integer and 5 decimal *
%FSLAX45Y45*%
%MOMM*%

%AMMACRO1*4,1,32,-0.2245,-1.2516,-0.255,-1.2465,-0.2855,-1.2313,-0.3058,-1.2109,-0.3211,-1.1805,-0.3261,-1.15,-0.3269,-1.149,-0.3269,1.1497,-0.3261,1.15,-0.3211,1.1805,-0.3058,1.2109,-0.2855,1.2313,-0.255,1.2465,-0.2245,1.2516,-0.2253,1.2513,0.2243,1.2513,0.2253,1.2516,0.2558,1.2465,0.2863,1.2313,0.3066,1.2109,0.3218,1.1805,0.3269,1.15,0.3259,1.1497,0.3259,-1.149,0.3269,-1.15,0.3218,-1.1805,0.3066,-1.2109,0.2863,-1.2313,0.2558,-1.2465,0.2253,-1.2516,0.2243,-1.2506,-0.2253,-1.2506,-0.2245,-1.2516,0*%
%AMMACRO2*4,1,32,-0.2254,-1.2516,-0.2559,-1.2465,-0.2864,-1.2313,-0.3067,-1.2109,-0.3219,-1.1805,-0.327,-1.15,-0.3258,-1.149,-0.3258,1.1497,-0.327,1.15,-0.3219,1.1805,-0.3067,1.2109,-0.2864,1.2313,-0.2559,1.2465,-0.2254,1.2516,-0.2242,1.2513,0.2254,1.2513,0.2247,1.2516,0.2551,1.2465,0.2856,1.2313,0.3059,1.2109,0.3212,1.1805,0.3263,1.15,0.327,1.1497,0.327,-1.149,0.3263,-1.15,0.3212,-1.1805,0.3059,-1.2109,0.2856,-1.2313,0.2551,-1.2465,0.2247,-1.2516,0.2254,-1.2506,-0.2242,-1.2506,-0.2254,-1.2516,0*%
%AMMACRO3*4,1,32,-0.2252,-1.2516,-0.2557,-1.2465,-0.2861,-1.2313,-0.3065,-1.2109,-0.3217,-1.1805,-0.3268,-1.15,-0.326,-1.149,-0.326,1.1497,-0.3268,1.15,-0.3217,1.1805,-0.3065,1.2109,-0.2861,1.2313,-0.2557,1.2465,-0.2252,1.2516,-0.2244,1.2513,0.2252,1.2513,0.2249,1.2516,0.2554,1.2465,0.2859,1.2313,0.3062,1.2109,0.3214,1.1805,0.3265,1.15,0.3268,1.1497,0.3268,-1.149,0.3265,-1.15,0.3214,-1.1805,0.3062,-1.2109,0.2859,-1.2313,0.2554,-1.2465,0.2249,-1.2516,0.2252,-1.2506,-0.2244,-1.2506,-0.2252,-1.2516,0*%
%AMMACRO4*4,1,32,-0.225,-1.2516,-0.2555,-1.2465,-0.286,-1.2313,-0.3063,-1.2109,-0.3216,-1.1805,-0.3266,-1.15,-0.3264,-1.149,-0.3264,1.1497,-0.3266,1.15,-0.3216,1.1805,-0.3063,1.2109,-0.286,1.2313,-0.2555,1.2465,-0.225,1.2516,-0.2248,1.2513,0.2248,1.2513,0.225,1.2516,0.2555,1.2465,0.286,1.2313,0.3063,1.2109,0.3216,1.1805,0.3266,1.15,0.3264,1.1497,0.3264,-1.149,0.3266,-1.15,0.3216,-1.1805,0.3063,-1.2109,0.286,-1.2313,0.2555,-1.2465,0.225,-1.2516,0.2248,-1.2506,-0.2248,-1.2506,-0.225,-1.2516,0*%
%AMMACRO5*4,1,32,-0.2247,-1.2516,-0.2551,-1.2465,-0.2856,-1.2313,-0.3059,-1.2109,-0.3212,-1.1805,-0.3263,-1.15,-0.3268,-1.149,-0.3268,1.1497,-0.3263,1.15,-0.3212,1.1805,-0.3059,1.2109,-0.2856,1.2313,-0.2551,1.2465,-0.2247,1.2516,-0.2252,1.2513,0.2244,1.2513,0.2252,1.2516,0.2557,1.2465,0.2861,1.2313,0.3065,1.2109,0.3217,1.1805,0.3268,1.15,0.326,1.1497,0.326,-1.149,0.3268,-1.15,0.3217,-1.1805,0.3065,-1.2109,0.2861,-1.2313,0.2557,-1.2465,0.2252,-1.2516,0.2244,-1.2506,-0.2252,-1.2506,-0.2247,-1.2516,0*%
%AMMACRO6*4,1,32,-0.225,-1.2516,-0.2555,-1.2465,-0.286,-1.2313,-0.3063,-1.2109,-0.3216,-1.1805,-0.3266,-1.15,-0.3277,-1.149,-0.3277,1.1497,-0.3266,1.15,-0.3216,1.1805,-0.3063,1.2109,-0.286,1.2313,-0.2555,1.2465,-0.225,1.2516,-0.2261,1.2513,0.2261,1.2513,0.2248,1.2516,0.2553,1.2465,0.2858,1.2313,0.3061,1.2109,0.3213,1.1805,0.3264,1.15,0.3277,1.1497,0.3277,-1.149,0.3264,-1.15,0.3213,-1.1805,0.3061,-1.2109,0.2858,-1.2313,0.2553,-1.2465,0.2248,-1.2516,0.2261,-1.2506,-0.2261,-1.2506,-0.225,-1.2516,0*%
%AMMACRO7*4,1,32,-0.2253,-1.2516,-0.2558,-1.2465,-0.2863,-1.2313,-0.3066,-1.2109,-0.3218,-1.1805,-0.3269,-1.15,-0.3259,-1.149,-0.3259,1.1497,-0.3269,1.15,-0.3218,1.1805,-0.3066,1.2109,-0.2863,1.2313,-0.2558,1.2465,-0.2253,1.2516,-0.2243,1.2513,0.2253,1.2513,0.2248,1.2516,0.2553,1.2465,0.2858,1.2313,0.3061,1.2109,0.3213,1.1805,0.3264,1.15,0.3269,1.1497,0.3269,-1.149,0.3264,-1.15,0.3213,-1.1805,0.3061,-1.2109,0.2858,-1.2313,0.2553,-1.2465,0.2248,-1.2516,0.2253,-1.2506,-0.2243,-1.2506,-0.2253,-1.2516,0*%
%AMMACRO8*4,1,30,-0.225,-1.2516,-0.2555,-1.2465,-0.286,-1.2313,-0.3063,-1.2109,-0.3216,-1.1805,-0.3266,-1.15,-0.3261,-1.149,-0.3261,1.1497,-0.3266,1.15,-0.3216,1.1805,-0.3063,1.2109,-0.286,1.2313,-0.2555,1.2465,-0.225,1.2516,-0.2245,1.2513,0.225,1.2513,0.225,1.2516,0.2555,1.2465,0.286,1.2313,0.3063,1.2109,0.3216,1.1805,0.3266,1.15,0.3266,-1.15,0.3216,-1.1805,0.3063,-1.2109,0.286,-1.2313,0.2555,-1.2465,0.225,-1.2516,0.225,-1.2506,-0.2245,-1.2506,-0.225,-1.2516,0*%
%AMMACRO9*4,1,30,-0.225,-1.2516,-0.2555,-1.2465,-0.286,-1.2313,-0.3063,-1.2109,-0.3216,-1.1805,-0.3266,-1.15,-0.3266,1.15,-0.3216,1.1805,-0.3063,1.2109,-0.286,1.2313,-0.2555,1.2465,-0.225,1.2516,-0.225,1.2513,0.2245,1.2513,0.225,1.2516,0.2555,1.2465,0.286,1.2313,0.3063,1.2109,0.3216,1.1805,0.3266,1.15,0.3261,1.1497,0.3261,-1.149,0.3266,-1.15,0.3216,-1.1805,0.3063,-1.2109,0.286,-1.2313,0.2555,-1.2465,0.225,-1.2516,0.2245,-1.2506,-0.225,-1.2506,-0.225,-1.2516,0*%
%AMMACRO10*4,1,32,-0.2254,-1.2516,-0.2559,-1.2465,-0.2864,-1.2313,-0.3067,-1.2109,-0.3219,-1.1805,-0.327,-1.15,-0.3258,-1.149,-0.3258,1.1497,-0.327,1.15,-0.3219,1.1805,-0.3067,1.2109,-0.2864,1.2313,-0.2559,1.2465,-0.2254,1.2516,-0.2242,1.2513,0.2254,1.2513,0.2244,1.2516,0.2549,1.2465,0.2854,1.2313,0.3057,1.2109,0.3209,1.1805,0.326,1.15,0.327,1.1497,0.327,-1.149,0.326,-1.15,0.3209,-1.1805,0.3057,-1.2109,0.2854,-1.2313,0.2549,-1.2465,0.2244,-1.2516,0.2254,-1.2506,-0.2242,-1.2506,-0.2254,-1.2516,0*%
%AMMACRO11*4,1,32,-0.2249,-1.2516,-0.2554,-1.2465,-0.2859,-1.2313,-0.3062,-1.2109,-0.3214,-1.1805,-0.3265,-1.15,-0.3268,-1.149,-0.3268,1.1497,-0.3265,1.15,-0.3214,1.1805,-0.3062,1.2109,-0.2859,1.2313,-0.2554,1.2465,-0.2249,1.2516,-0.2252,1.2513,0.2244,1.2513,0.2252,1.2516,0.2557,1.2465,0.2861,1.2313,0.3065,1.2109,0.3217,1.1805,0.3268,1.15,0.326,1.1497,0.326,-1.149,0.3268,-1.15,0.3217,-1.1805,0.3065,-1.2109,0.2861,-1.2313,0.2557,-1.2465,0.2252,-1.2516,0.2244,-1.2506,-0.2252,-1.2506,-0.2249,-1.2516,0*%
%AMMACRO12*4,1,32,-0.2253,-1.2516,-0.2558,-1.2465,-0.2863,-1.2313,-0.3066,-1.2109,-0.3218,-1.1805,-0.3269,-1.15,-0.3259,-1.149,-0.3259,1.1497,-0.3269,1.15,-0.3218,1.1805,-0.3066,1.2109,-0.2863,1.2313,-0.2558,1.2465,-0.2253,1.2516,-0.2243,1.2513,0.2253,1.2513,0.2245,1.2516,0.255,1.2465,0.2855,1.2313,0.3058,1.2109,0.3211,1.1805,0.3261,1.15,0.3269,1.1497,0.3269,-1.149,0.3261,-1.15,0.3211,-1.1805,0.3058,-1.2109,0.2855,-1.2313,0.255,-1.2465,0.2245,-1.2516,0.2253,-1.2506,-0.2243,-1.2506,-0.2253,-1.2516,0*%
%AMMACRO13*4,1,32,-0.2248,-1.2516,-0.2553,-1.2465,-0.2857,-1.2313,-0.3061,-1.2109,-0.3213,-1.1805,-0.3264,-1.15,-0.3269,-1.149,-0.3269,1.1497,-0.3264,1.15,-0.3213,1.1805,-0.3061,1.2109,-0.2857,1.2313,-0.2553,1.2465,-0.2248,1.2516,-0.2253,1.2513,0.2243,1.2513,0.2253,1.2516,0.2558,1.2465,0.2863,1.2313,0.3066,1.2109,0.3218,1.1805,0.3269,1.15,0.3259,1.1497,0.3259,-1.149,0.3269,-1.15,0.3218,-1.1805,0.3066,-1.2109,0.2863,-1.2313,0.2558,-1.2465,0.2253,-1.2516,0.2243,-1.2506,-0.2253,-1.2506,-0.2248,-1.2516,0*%
%AMMACRO14*4,1,32,-0.225,-1.2516,-0.2555,-1.2465,-0.286,-1.2313,-0.3063,-1.2109,-0.3216,-1.1805,-0.3266,-1.15,-0.3277,-1.149,-0.3277,1.1497,-0.3266,1.15,-0.3216,1.1805,-0.3063,1.2109,-0.286,1.2313,-0.2555,1.2465,-0.225,1.2516,-0.2261,1.2513,0.2261,1.2513,0.225,1.2516,0.2555,1.2465,0.286,1.2313,0.3063,1.2109,0.3216,1.1805,0.3266,1.15,0.3277,1.1497,0.3277,-1.149,0.3266,-1.15,0.3216,-1.1805,0.3063,-1.2109,0.286,-1.2313,0.2555,-1.2465,0.225,-1.2516,0.2261,-1.2506,-0.2261,-1.2506,-0.225,-1.2516,0*%
%AMMACRO15*4,1,32,-0.2252,-1.2516,-0.2557,-1.2465,-0.2861,-1.2313,-0.3065,-1.2109,-0.3217,-1.1805,-0.3268,-1.15,-0.326,-1.149,-0.326,1.1497,-0.3268,1.15,-0.3217,1.1805,-0.3065,1.2109,-0.2861,1.2313,-0.2557,1.2465,-0.2252,1.2516,-0.2244,1.2513,0.2252,1.2513,0.2247,1.2516,0.2551,1.2465,0.2856,1.2313,0.3059,1.2109,0.3212,1.1805,0.3263,1.15,0.3268,1.1497,0.3268,-1.149,0.3263,-1.15,0.3212,-1.1805,0.3059,-1.2109,0.2856,-1.2313,0.2551,-1.2465,0.2247,-1.2516,0.2252,-1.2506,-0.2244,-1.2506,-0.2252,-1.2516,0*%
%AMMACRO16*4,1,32,-0.2253,-1.2516,-0.2558,-1.2465,-0.2863,-1.2313,-0.3066,-1.2109,-0.3218,-1.1805,-0.3269,-1.15,-0.3277,-1.149,-0.3277,1.1497,-0.3269,1.15,-0.3218,1.1805,-0.3066,1.2109,-0.2863,1.2313,-0.2558,1.2465,-0.2253,1.2516,-0.2261,1.2513,0.2261,1.2513,0.2248,1.2516,0.2553,1.2465,0.2858,1.2313,0.3061,1.2109,0.3213,1.1805,0.3264,1.15,0.3277,1.1497,0.3277,-1.149,0.3264,-1.15,0.3213,-1.1805,0.3061,-1.2109,0.2858,-1.2313,0.2553,-1.2465,0.2248,-1.2516,0.2261,-1.2506,-0.2261,-1.2506,-0.2253,-1.2516,0*%
%AMMACRO17*4,1,32,-0.225,-1.2516,-0.2555,-1.2465,-0.286,-1.2313,-0.3063,-1.2109,-0.3216,-1.1805,-0.3266,-1.15,-0.3261,-1.149,-0.3261,1.1497,-0.3266,1.15,-0.3216,1.1805,-0.3063,1.2109,-0.286,1.2313,-0.2555,1.2465,-0.225,1.2516,-0.2245,1.2513,0.225,1.2513,0.2248,1.2516,0.2553,1.2465,0.2858,1.2313,0.3061,1.2109,0.3213,1.1805,0.3264,1.15,0.3266,1.1497,0.3266,-1.149,0.3264,-1.15,0.3213,-1.1805,0.3061,-1.2109,0.2858,-1.2313,0.2553,-1.2465,0.2248,-1.2516,0.225,-1.2506,-0.2245,-1.2506,-0.225,-1.2516,0*%
%AMMACRO18*4,1,32,-0.2249,-1.2516,-0.2554,-1.2465,-0.2859,-1.2313,-0.3062,-1.2109,-0.3214,-1.1805,-0.3265,-1.15,-0.3263,-1.149,-0.3263,1.1497,-0.3265,1.15,-0.3214,1.1805,-0.3062,1.2109,-0.2859,1.2313,-0.2554,1.2465,-0.2249,1.2516,-0.2247,1.2513,0.2249,1.2513,0.2249,1.2516,0.2554,1.2465,0.2859,1.2313,0.3062,1.2109,0.3214,1.1805,0.3265,1.15,0.3265,1.1497,0.3265,-1.149,0.3265,-1.15,0.3214,-1.1805,0.3062,-1.2109,0.2859,-1.2313,0.2554,-1.2465,0.2249,-1.2516,0.2249,-1.2506,-0.2247,-1.2506,-0.2249,-1.2516,0*%
%AMMACRO19*4,1,32,-0.225,-1.2516,-0.2555,-1.2465,-0.286,-1.2313,-0.3063,-1.2109,-0.3216,-1.1805,-0.3266,-1.15,-0.3261,-1.149,-0.3261,1.1497,-0.3266,1.15,-0.3216,1.1805,-0.3063,1.2109,-0.286,1.2313,-0.2555,1.2465,-0.225,1.2516,-0.2245,1.2513,0.225,1.2513,0.2248,1.2516,0.2553,1.2465,0.2857,1.2313,0.3061,1.2109,0.3213,1.1805,0.3264,1.15,0.3266,1.1497,0.3266,-1.149,0.3264,-1.15,0.3213,-1.1805,0.3061,-1.2109,0.2857,-1.2313,0.2553,-1.2465,0.2248,-1.2516,0.225,-1.2506,-0.2245,-1.2506,-0.225,-1.2516,0*%
%AMMACRO20*4,1,32,-0.2249,-1.2516,-0.2554,-1.2465,-0.2859,-1.2313,-0.3062,-1.2109,-0.3214,-1.1805,-0.3265,-1.15,-0.3265,-1.149,-0.3265,1.1497,-0.3265,1.15,-0.3214,1.1805,-0.3062,1.2109,-0.2859,1.2313,-0.2554,1.2465,-0.2249,1.2516,-0.2249,1.2513,0.2247,1.2513,0.2249,1.2516,0.2554,1.2465,0.2859,1.2313,0.3062,1.2109,0.3214,1.1805,0.3265,1.15,0.3263,1.1497,0.3263,-1.149,0.3265,-1.15,0.3214,-1.1805,0.3062,-1.2109,0.2859,-1.2313,0.2554,-1.2465,0.2249,-1.2516,0.2247,-1.2506,-0.2249,-1.2506,-0.2249,-1.2516,0*%
%AMMACRO21*4,1,32,-0.2248,-1.2516,-0.2553,-1.2465,-0.2858,-1.2313,-0.3061,-1.2109,-0.3213,-1.1805,-0.3264,-1.15,-0.3269,-1.149,-0.3269,1.1497,-0.3264,1.15,-0.3213,1.1805,-0.3061,1.2109,-0.2858,1.2313,-0.2553,1.2465,-0.2248,1.2516,-0.2253,1.2513,0.2243,1.2513,0.2253,1.2516,0.2558,1.2465,0.2863,1.2313,0.3066,1.2109,0.3218,1.1805,0.3269,1.15,0.3259,1.1497,0.3259,-1.149,0.3269,-1.15,0.3218,-1.1805,0.3066,-1.2109,0.2863,-1.2313,0.2558,-1.2465,0.2253,-1.2516,0.2243,-1.2506,-0.2253,-1.2506,-0.2248,-1.2516,0*%
%AMMACRO22*4,1,32,-0.2253,-1.2516,-0.2558,-1.2465,-0.2863,-1.2313,-0.3066,-1.2109,-0.3218,-1.1805,-0.3269,-1.15,-0.3259,-1.149,-0.3259,1.1497,-0.3269,1.15,-0.3218,1.1805,-0.3066,1.2109,-0.2863,1.2313,-0.2558,1.2465,-0.2253,1.2516,-0.2243,1.2513,0.2253,1.2513,0.2248,1.2516,0.2553,1.2465,0.2857,1.2313,0.3061,1.2109,0.3213,1.1805,0.3264,1.15,0.3269,1.1497,0.3269,-1.149,0.3264,-1.15,0.3213,-1.1805,0.3061,-1.2109,0.2857,-1.2313,0.2553,-1.2465,0.2248,-1.2516,0.2253,-1.2506,-0.2243,-1.2506,-0.2253,-1.2516,0*%
%AMMACRO23*4,1,30,-0.2249,-1.2516,-0.2554,-1.2465,-0.2859,-1.2313,-0.3062,-1.2109,-0.3214,-1.1805,-0.3265,-1.15,-0.3263,-1.149,-0.3263,1.1497,-0.3265,1.15,-0.3214,1.1805,-0.3062,1.2109,-0.2859,1.2313,-0.2554,1.2465,-0.2249,1.2516,-0.2247,1.2513,0.2249,1.2513,0.2249,1.2516,0.2554,1.2465,0.2859,1.2313,0.3062,1.2109,0.3214,1.1805,0.3265,1.15,0.3265,-1.15,0.3214,-1.1805,0.3062,-1.2109,0.2859,-1.2313,0.2554,-1.2465,0.2249,-1.2516,0.2249,-1.2506,-0.2247,-1.2506,-0.2249,-1.2516,0*%
%AMMACRO24*4,1,32,-0.2248,-1.2516,-0.2553,-1.2465,-0.2858,-1.2313,-0.3061,-1.2109,-0.3213,-1.1805,-0.3264,-1.15,-0.3266,-1.149,-0.3266,1.1497,-0.3264,1.15,-0.3213,1.1805,-0.3061,1.2109,-0.2858,1.2313,-0.2553,1.2465,-0.2248,1.2516,-0.225,1.2513,0.2245,1.2513,0.225,1.2516,0.2555,1.2465,0.286,1.2313,0.3063,1.2109,0.3216,1.1805,0.3266,1.15,0.3261,1.1497,0.3261,-1.149,0.3266,-1.15,0.3216,-1.1805,0.3063,-1.2109,0.286,-1.2313,0.2555,-1.2465,0.225,-1.2516,0.2245,-1.2506,-0.225,-1.2506,-0.2248,-1.2516,0*%
%AMMACRO25*4,1,30,-0.2249,-1.2516,-0.2554,-1.2465,-0.2859,-1.2313,-0.3062,-1.2109,-0.3214,-1.1805,-0.3265,-1.15,-0.3265,1.15,-0.3214,1.1805,-0.3062,1.2109,-0.2859,1.2313,-0.2554,1.2465,-0.2249,1.2516,-0.2249,1.2513,0.2247,1.2513,0.2249,1.2516,0.2554,1.2465,0.2859,1.2313,0.3062,1.2109,0.3214,1.1805,0.3265,1.15,0.3263,1.1497,0.3263,-1.149,0.3265,-1.15,0.3214,-1.1805,0.3062,-1.2109,0.2859,-1.2313,0.2554,-1.2465,0.2249,-1.2516,0.2247,-1.2506,-0.2249,-1.2506,-0.2249,-1.2516,0*%
%AMMACRO26*4,1,32,-0.2248,-1.2516,-0.2553,-1.2465,-0.2857,-1.2313,-0.3061,-1.2109,-0.3213,-1.1805,-0.3264,-1.15,-0.3266,-1.149,-0.3266,1.1497,-0.3264,1.15,-0.3213,1.1805,-0.3061,1.2109,-0.2857,1.2313,-0.2553,1.2465,-0.2248,1.2516,-0.225,1.2513,0.2245,1.2513,0.225,1.2516,0.2555,1.2465,0.286,1.2313,0.3063,1.2109,0.3216,1.1805,0.3266,1.15,0.3261,1.1497,0.3261,-1.149,0.3266,-1.15,0.3216,-1.1805,0.3063,-1.2109,0.286,-1.2313,0.2555,-1.2465,0.225,-1.2516,0.2245,-1.2506,-0.225,-1.2506,-0.2248,-1.2516,0*%
%AMMACRO27*4,1,32,-0.2248,-1.2516,-0.2553,-1.2465,-0.2858,-1.2313,-0.3061,-1.2109,-0.3213,-1.1805,-0.3264,-1.15,-0.3277,-1.149,-0.3277,1.1497,-0.3264,1.15,-0.3213,1.1805,-0.3061,1.2109,-0.2858,1.2313,-0.2553,1.2465,-0.2248,1.2516,-0.2261,1.2513,0.2261,1.2513,0.2253,1.2516,0.2558,1.2465,0.2863,1.2313,0.3066,1.2109,0.3218,1.1805,0.3269,1.15,0.3277,1.1497,0.3277,-1.149,0.3269,-1.15,0.3218,-1.1805,0.3066,-1.2109,0.2863,-1.2313,0.2558,-1.2465,0.2253,-1.2516,0.2261,-1.2506,-0.2261,-1.2506,-0.2248,-1.2516,0*%
%AMMACRO28*4,1,32,-0.225,-1.2516,-0.2555,-1.2465,-0.286,-1.2313,-0.3063,-1.2109,-0.3216,-1.1805,-0.3266,-1.15,-0.3266,-1.149,-0.3266,1.1497,-0.3266,1.15,-0.3216,1.1805,-0.3063,1.2109,-0.286,1.2313,-0.2555,1.2465,-0.225,1.2516,-0.225,1.2513,0.2245,1.2513,0.225,1.2516,0.2555,1.2465,0.286,1.2313,0.3063,1.2109,0.3216,1.1805,0.3266,1.15,0.3261,1.1497,0.3261,-1.149,0.3266,-1.15,0.3216,-1.1805,0.3063,-1.2109,0.286,-1.2313,0.2555,-1.2465,0.225,-1.2516,0.2245,-1.2506,-0.225,-1.2506,-0.225,-1.2516,0*%
%AMMACRO29*4,1,32,-0.225,-1.2516,-0.2555,-1.2465,-0.286,-1.2313,-0.3063,-1.2109,-0.3216,-1.1805,-0.3266,-1.15,-0.3261,-1.149,-0.3261,1.1497,-0.3266,1.15,-0.3216,1.1805,-0.3063,1.2109,-0.286,1.2313,-0.2555,1.2465,-0.225,1.2516,-0.2245,1.2513,0.225,1.2513,0.225,1.2516,0.2555,1.2465,0.286,1.2313,0.3063,1.2109,0.3216,1.1805,0.3266,1.15,0.3266,1.1497,0.3266,-1.149,0.3266,-1.15,0.3216,-1.1805,0.3063,-1.2109,0.286,-1.2313,0.2555,-1.2465,0.225,-1.2516,0.225,-1.2506,-0.2245,-1.2506,-0.225,-1.2516,0*%
%AMMACRO30*4,1,32,-0.2247,-1.2516,-0.2551,-1.2465,-0.2856,-1.2313,-0.3059,-1.2109,-0.3212,-1.1805,-0.3263,-1.15,-0.327,-1.149,-0.327,1.1497,-0.3263,1.15,-0.3212,1.1805,-0.3059,1.2109,-0.2856,1.2313,-0.2551,1.2465,-0.2247,1.2516,-0.2254,1.2513,0.2242,1.2513,0.2254,1.2516,0.2559,1.2465,0.2864,1.2313,0.3067,1.2109,0.3219,1.1805,0.327,1.15,0.3258,1.1497,0.3258,-1.149,0.327,-1.15,0.3219,-1.1805,0.3067,-1.2109,0.2864,-1.2313,0.2559,-1.2465,0.2254,-1.2516,0.2242,-1.2506,-0.2254,-1.2506,-0.2247,-1.2516,0*%
%AMMACRO31*1,1,$1,$2,$3*1,1,$1,$4,$5*1,1,$1,0-$2,0-$3*1,1,$1,0-$4,0-$5*20,1,$1,$2,$3,$4,$5,0*20,1,$1,$4,$5,0-$2,0-$3,0*20,1,$1,0-$2,0-$3,0-$4,0-$5,0*20,1,$1,0-$4,0-$5,$2,$3,0*4,1,4,$2,$3,$4,$5,0-$2,0-$3,0-$4,0-$5,$2,$3,0*%
%ADD10MACRO1*%
%ADD11MACRO2*%
%ADD12MACRO3*%
%ADD13MACRO4*%
%ADD14MACRO5*%
%ADD15MACRO6*%
%ADD16MACRO7*%
%ADD17MACRO8*%
%ADD18MACRO9*%
%ADD19MACRO10*%
%ADD20MACRO11*%
%ADD21MACRO12*%
%ADD22MACRO13*%
%ADD23MACRO14*%
%ADD24MACRO15*%
%ADD25MACRO16*%
%ADD26MACRO17*%
%ADD27MACRO18*%
%ADD28MACRO19*%
%ADD29MACRO20*%
%ADD30MACRO21*%
%ADD31MACRO22*%
%ADD32MACRO23*%
%ADD33MACRO24*%
%ADD34MACRO25*%
%ADD35MACRO26*%
%ADD36MACRO27*%
%ADD37MACRO28*%
%ADD38MACRO29*%
%ADD39MACRO30*%
%ADD40C,1.7033*%
%ADD41C,1.6032*%
%ADD42MACRO31,0.2032X0.7X-0.7X-0.7X-0.7*%
%ADD43C,3.8032*%
%ADD44C,1.6764*%
%ADD45MACRO31,0.1016X0.7874X-0.7874X-0.7874X-0.7874*%

%LPD*%
D10*
G01*
X215061Y140045D03*
D11*
G01*
X275145Y140045D03*
D12*
G01*
X335114Y140045D03*
D13*
G01*
X395096Y140045D03*
D14*
G01*
X455079Y140045D03*
D15*
G01*
X515111Y140045D03*
D16*
G01*
X575132Y140045D03*
D17*
G01*
X635101Y140045D03*
D18*
G01*
X695096Y140045D03*
D10*
G01*
X755065Y140045D03*
D19*
G01*
X815149Y140045D03*
D12*
G01*
X875118Y140045D03*
D13*
G01*
X935101Y140045D03*
D20*
G01*
X995083Y140045D03*
D15*
G01*
X1055115Y140045D03*
D21*
G01*
X1115136Y140045D03*
D17*
G01*
X1175105Y140045D03*
D18*
G01*
X1235100Y140045D03*
D22*
G01*
X1295069Y140045D03*
D19*
G01*
X1355153Y140045D03*
D18*
G01*
X1775104Y140045D03*
D22*
G01*
X1835073Y140045D03*
D23*
G01*
X1895094Y140045D03*
D24*
G01*
X1955126Y140045D03*
D13*
G01*
X2015109Y140045D03*
D20*
G01*
X2075091Y140045D03*
D25*
G01*
X2135124Y140045D03*
D21*
G01*
X2195144Y140045D03*
D26*
G01*
X2255113Y140045D03*
D18*
G01*
X2315108Y140045D03*
D22*
G01*
X2375077Y140045D03*
D23*
G01*
X2435097Y140045D03*
D24*
G01*
X2495130Y140045D03*
D27*
G01*
X2555100Y140045D03*
D20*
G01*
X2615095Y140045D03*
D25*
G01*
X2675127Y140045D03*
D11*
G01*
X2735135Y140045D03*
D28*
G01*
X2795117Y140045D03*
D29*
G01*
X2855099Y140045D03*
D30*
G01*
X2915081Y140045D03*
D23*
G01*
X2975102Y140045D03*
D31*
G01*
X3035122Y140045D03*
D32*
G01*
X3095104Y140045D03*
D33*
G01*
X3155086Y140045D03*
D25*
G01*
X3215131Y140045D03*
D11*
G01*
X3275139Y140045D03*
D12*
G01*
X3335108Y140045D03*
D34*
G01*
X3395103Y140045D03*
D14*
G01*
X3455073Y140045D03*
D23*
G01*
X3515106Y140045D03*
D16*
G01*
X3575126Y140045D03*
D17*
G01*
X3635095Y140045D03*
D35*
G01*
X3695090Y140045D03*
D10*
G01*
X3755059Y140045D03*
D36*
G01*
X3815079Y140045D03*
D12*
G01*
X3875112Y140045D03*
D13*
G01*
X3935094Y140045D03*
D14*
G01*
X3995077Y140045D03*
D15*
G01*
X4055109Y140045D03*
D31*
G01*
X4115130Y140045D03*
D17*
G01*
X4175099Y140045D03*
D37*
G01*
X4235094Y140045D03*
D10*
G01*
X4295063Y140045D03*
D11*
G01*
X4355147Y140045D03*
D12*
G01*
X4415116Y140045D03*
D13*
G01*
X4475098Y140045D03*
D20*
G01*
X4535081Y140045D03*
D15*
G01*
X4595113Y140045D03*
D31*
G01*
X4655134Y140045D03*
D38*
G01*
X4715103Y140045D03*
D37*
G01*
X4775098Y140045D03*
D10*
G01*
X4835067Y140045D03*
D19*
G01*
X4895151Y140045D03*
D12*
G01*
X4955120Y140045D03*
D13*
G01*
X5015103Y140045D03*
D20*
G01*
X5075085Y140045D03*
D15*
G01*
X5135118Y140045D03*
D21*
G01*
X5195138Y140045D03*
D17*
G01*
X5255107Y140045D03*
D18*
G01*
X5315102Y140045D03*
D22*
G01*
X5375071Y140045D03*
D19*
G01*
X5435155Y140045D03*
D24*
G01*
X5495124Y140045D03*
D13*
G01*
X5555106Y140045D03*
D20*
G01*
X5615089Y140045D03*
D39*
G01*
X5675058Y140045D03*
D21*
G01*
X5735142Y140045D03*
D26*
G01*
X5795111Y140045D03*
D18*
G01*
X5855106Y140045D03*
D30*
G01*
X5915075Y140045D03*
D23*
G01*
X5975095Y140045D03*
D24*
G01*
X6035128Y140045D03*
D27*
G01*
X6095098Y140045D03*
D20*
G01*
X6155093Y140045D03*
D25*
G01*
X6215125Y140045D03*
D11*
G01*
X6275133Y140045D03*
D26*
G01*
X6335115Y140045D03*
D29*
G01*
X6395097Y140045D03*
D22*
G01*
X6455079Y140045D03*
D23*
G01*
X6515100Y140045D03*
D40*
G01*
X6560159Y599998D03*
G01*
X199999Y599998D03*
D41*
G01*
X4624984Y1729003D03*
G01*
X4624984Y1529003D03*
D42*
G01*
X4374989Y1529013D03*
D41*
G01*
X4374997Y1729003D03*
D43*
G01*
X3897985Y1999995D03*
G01*
X5101996Y1999995D03*
D44*
G01*
X5691987Y1495983D03*
G01*
X5691987Y1749983D03*
G01*
X5945987Y1495983D03*
G01*
X5945987Y1749983D03*
G01*
X6199987Y1495983D03*
D45*
G01*
X6199987Y1749996D03*
M02*
